<svg xmlns="http://www.w3.org/2000/svg" xmlns:xlink="http://www.w3.org/1999/xlink" width="582" height="676.614990234375" viewBox="0 0 582 676.614990234375" fill="none">
<path d="M23.6381 513.219L301.535 356.935L560.222 513.219L291.93 673.684L23.6381 513.219Z" stroke="url(#linear_border_87471159-DA2B-410D-97A3-575726B3B85F)" stroke-width="5.030135669105576"   >
</path>
<g opacity="0.2">
<path d="M542.543 145.374L542.543 436.122L290.748 581.496L38.9528 436.122L38.9528 145.374L290.748 0L542.543 145.374Z"   fill="url(#linear_fill_D38BD85E-85CA-44B2-84A3-C287B9BC5078)" >
</path>
</g>
<path d="M40.1847 437.637L301.016 290.748L543.818 437.637L292.001 590.951L40.1847 437.637Z"   fill="url(#linear_fill_E5768AEA-0AC0-4873-AE61-49E3C2D5D5D4)" >
</path>
<g mask="url(#mask-E5768AEA-0AC0-4873-AE61-49E3C2D5D5D4)">
<g filter="url(#filter_116A0EAB-7937-4998-B5E6-1D157A5EBA07)">
<path d="M165.466 439.867L296.457 366.39L418.393 439.867L291.93 515.31L165.466 439.867Z"   fill="url(#linear_fill_116A0EAB-7937-4998-B5E6-1D157A5EBA07)" >
</path>
</g>
</g>
<g mask="url(#mask-E5768AEA-0AC0-4873-AE61-49E3C2D5D5D4)">
<g filter="url(#filter_2B89F1D1-71A0-4EAF-995B-A8A0735B808A)">
<circle cx="293.11183310100785" cy="269.47377157757035" r="172.55775595257035"   fill="#4870F2" fill-opacity="0.35">
</circle>
</g>
</g>
<path d="M40.1847 437.629L291.999 588.454L293.112 631.168L40.1847 481.581L40.1847 437.629Z"   fill="url(#linear_fill_A8A9DC34-AF96-428F-9316-C65CE4AF28E5)" >
</path>
<path d="M292.001 588.454L543.818 437.629L543.818 483.459L293.109 631.168L292.001 588.454Z"   fill="url(#linear_fill_BE3CAA6B-B843-4F93-A769-C145349F4A42)" >
</path>
<path d="M374.071 388.74L394.23 383.344C396.389 382.756 398.258 380.183 398.37 377.634L399.3 354.954L401.41 303.604L405.2 211.404L407.87 146.554L409.56 105.684C409.654 103.136 407.979 101.506 405.82 102.094L292.82 132.344L290.01 200.624C289.954 201.866 289.047 203.368 287.77 203.694L230.26 219.114L221.79 424.934C221.696 427.515 223.372 429.112 225.55 428.524L230.386 427.229L230.261 428.369L374.071 389.189L374.071 388.74Z" fill-rule="evenodd"  fill="url(#linear_fill_369A0786-D975-45D8-9B1E-6BC88F4D6BEA)" >
</path>
<path d="M292.821 132.357L241.222 105.916L354.212 75.6417L405.81 102.083L292.821 132.357Z"   fill="url(#linear_fill_B05A5B10-EC30-4FD9-823C-7AE45D77AB23)" >
</path>
<path d="M290.011 200.616L238.414 174.176L241.222 105.918L292.818 132.358L290.011 200.616Z"   fill="#39D6D2" >
</path>
<path d="M290.847 132.885L239.253 106.443L241.224 105.917L292.818 132.356L290.847 132.885Z"   fill="#B0C1FD" >
</path>
<path d="M288.036 135.022L236.439 108.582C237.266 107.442 238.267 106.707 239.252 106.445L290.849 132.885C289.864 133.148 288.863 133.882 288.036 135.022Z"   fill="#96ABF5" >
</path>
<path d="M231.671 213.214L180.078 186.774L236.442 108.582L288.035 135.023L231.671 213.214Z"   fill="#6687FD" >
</path>
<path d="M178.666 192.67L229.626 218.786L178.666 192.67L170.2 398.508C170.2 398.508 170.796 401.383 171.848 401.939L223.441 428.369C222.39 427.838 221.794 424.939 221.794 424.939L230.26 219.124L230.358 216.781C230.85 214.679 231.102 214.148 231.102 214.148L231.674 213.205L180.08 186.775C180.08 186.775 179.742 187.282 179.656 187.427C179.354 188.007 179.231 188.297 179.231 188.297C179.096 188.659 179.065 188.756 179.065 188.756L178.666 192.67Z" fill-rule="evenodd"  fill="#2451F2" >
</path>
<path d="M292.818 132.357L290.009 200.613C289.959 201.88 289.052 203.364 287.776 203.711L230.261 219.12L230.355 216.795C230.405 215.623 230.849 214.365 231.675 213.211L288.032 135.021C288.858 133.884 289.865 133.146 290.847 132.886L292.818 132.357Z"   fill="#EAF2FF" >
</path>
<path d="M366.49 220.713C368.272 220.233 369.789 218.136 369.881 216.029C369.963 213.918 368.58 212.6 366.797 213.076L270.813 238.797C269.03 239.277 267.513 241.37 267.421 243.481C267.339 245.588 268.712 246.91 270.495 246.433L366.49 220.713Z"   fill="#FFFFFF" >
</path>
<path d="M365.304 248.533C367.087 248.057 368.47 249.376 368.388 251.486C368.296 253.594 366.779 255.698 364.997 256.178L269.002 281.897C267.219 282.373 265.846 281.044 265.928 278.937C266.021 276.829 267.537 274.732 269.32 274.256L365.304 248.533Z"   fill="#FFFFFF" >
</path>
<path d="M366.49 293.4C368.272 292.92 369.789 290.823 369.881 288.716C369.963 286.605 368.58 285.287 366.797 285.763L270.813 311.484C269.03 311.964 267.513 314.057 267.421 316.168C267.339 318.275 268.712 319.597 270.495 319.12L366.49 293.4Z"   fill="#FFFFFF" >
</path>
<path d="M365.304 321.22C367.087 320.744 368.47 322.063 368.388 324.173C368.296 326.281 366.779 328.385 364.997 328.865L269.002 354.584C267.219 355.06 265.846 353.731 265.928 351.624C266.021 349.516 267.537 347.419 269.32 346.943L365.304 321.22Z"   fill="#FFFFFF" >
</path>
<path    stroke="url(#linear_border_DB6555D5-7E91-44C3-B6A0-EC2F47D1D6F5_0)" stroke-width="9.45521950425043" stroke-linejoin="round"   d="M179.586 175.164C98.3235 187.474 42.5485 212.934 42.5485 242.332C42.5485 283.78 153.356 317.378 289.997 317.378C426.639 317.378 537.446 283.78 537.446 242.332C537.446 210.66 472.714 183.564 381.158 172.558">
</path>
<defs>
<linearGradient id="linear_border_87471159-DA2B-410D-97A3-575726B3B85F" x1="291.929931640625" y1="515.3095703125" x2="291.929931640625" y2="590.859619140625" gradientUnits="userSpaceOnUse">
<stop offset="0" stop-color="#9FB4FF" stop-opacity="0.28" />
<stop offset="1" stop-color="#7391FF"  />
</linearGradient>
<linearGradient id="linear_fill_D38BD85E-85CA-44B2-84A3-C287B9BC5078" x1="290.748046875" y1="0" x2="290.748046875" y2="581.49609375" gradientUnits="userSpaceOnUse">
<stop offset="0" stop-color="#3A65F2"  />
<stop offset="1" stop-color="#3D7FFF"  />
</linearGradient>
<linearGradient id="linear_fill_E5768AEA-0AC0-4873-AE61-49E3C2D5D5D4" x1="292.001220703125" y1="570.71240234375" x2="292.001220703125" y2="367.194091796875" gradientUnits="userSpaceOnUse">
<stop offset="0" stop-color="#EFF5FF"  />
<stop offset="1" stop-color="#A2BFF4"  />
</linearGradient>
<mask id="mask-E5768AEA-0AC0-4873-AE61-49E3C2D5D5D4" style="mask-type:alpha" maskUnits="userSpaceOnUse">
<path d="M40.1847 437.637L301.016 290.748L543.818 437.637L292.001 590.951L40.1847 437.637Z"   fill="url(#linear_fill_E5768AEA-0AC0-4873-AE61-49E3C2D5D5D4)" >
</path>
</mask>
<linearGradient id="linear_fill_116A0EAB-7937-4998-B5E6-1D157A5EBA07" x1="291.929931640625" y1="535.20703125" x2="301.4967041015625" y2="284.198974609375" gradientUnits="userSpaceOnUse">
<stop offset="0" stop-color="#A2BFF4"  />
<stop offset="1" stop-color="#EFF5FF"  />
</linearGradient>
<filter id="filter_116A0EAB-7937-4998-B5E6-1D157A5EBA07" x="137.10065008099878" y="338.02423406537355" width="309.66124866612745" height="205.6512389005029" filterUnits="userSpaceOnUse" color-interpolation-filters="sRGB">
<feFlood flood-opacity="0" result="feFloodId_116A0EAB-7937-4998-B5E6-1D157A5EBA07"/>
<feBlend mode="normal" in="SourceGraphic" in2="feFloodId_116A0EAB-7937-4998-B5E6-1D157A5EBA07" result="shape"/>
<feGaussianBlur result="gaussian_blur_116A0EAB-7937-4998-B5E6-1D157A5EBA07" stdDeviation="14.18282925637565"/>
</filter>
<filter id="filter_2B89F1D1-71A0-4EAF-995B-A8A0735B808A" x="70.2909981854657" y="46.652936662028196" width="445.6416364415686" height="445.64163644156883" filterUnits="userSpaceOnUse" color-interpolation-filters="sRGB">
<feFlood flood-opacity="0" result="feFloodId_2B89F1D1-71A0-4EAF-995B-A8A0735B808A"/>
<feBlend mode="normal" in="SourceGraphic" in2="feFloodId_2B89F1D1-71A0-4EAF-995B-A8A0735B808A" result="shape"/>
<feGaussianBlur result="gaussian_blur_2B89F1D1-71A0-4EAF-995B-A8A0735B808A" stdDeviation="25.13153948148595"/>
</filter>
<linearGradient id="linear_fill_A8A9DC34-AF96-428F-9316-C65CE4AF28E5" x1="283.4354248046875" y1="613.0078125" x2="40.1846923828125" y2="464.15380859375" gradientUnits="userSpaceOnUse">
<stop offset="0" stop-color="#D9E7FC"  />
<stop offset="1" stop-color="#3963F1"  />
</linearGradient>
<linearGradient id="linear_fill_BE3CAA6B-B843-4F93-A769-C145349F4A42" x1="292.001220703125" y1="631.16796875" x2="513.7044677734375" y2="492.829833984375" gradientUnits="userSpaceOnUse">
<stop offset="0" stop-color="#D9E7FC"  />
<stop offset="1" stop-color="#3963F1"  />
</linearGradient>
<linearGradient id="linear_fill_369A0786-D975-45D8-9B1E-6BC88F4D6BEA" x1="315.6785888671875" y1="101.96435546875" x2="315.6785888671875" y2="428.636962890625" gradientUnits="userSpaceOnUse">
<stop offset="0" stop-color="#E0E8FF"  />
<stop offset="1" stop-color="#6086FF"  />
</linearGradient>
<linearGradient id="linear_fill_B05A5B10-EC30-4FD9-823C-7AE45D77AB23" x1="363.68994140625" y1="85.3519287109375" x2="283.1712646484375" y2="117.2822265625" gradientUnits="userSpaceOnUse">
<stop offset="0" stop-color="#3D67FB"  />
<stop offset="1" stop-color="#6687FD"  />
</linearGradient>
<linearGradient id="linear_border_DB6555D5-7E91-44C3-B6A0-EC2F47D1D6F5_0" x1="289.9974365234375" y1="172.5576171875" x2="289.9974365234375" y2="317.378173828125" gradientUnits="userSpaceOnUse">
<stop offset="0" stop-color="#9CBCFA" stop-opacity="0" />
<stop offset="1" stop-color="#92ABFF"  />
</linearGradient>
</defs>
</svg>
