<svg xmlns="http://www.w3.org/2000/svg" xmlns:xlink="http://www.w3.org/1999/xlink" width="582" height="676.614990234375" viewBox="0 0 582 676.614990234375" fill="none">
<path d="M23.6381 513.219L301.535 356.935L560.222 513.219L291.93 673.684L23.6381 513.219Z" stroke="url(#linear_border_EAC06134-6913-4130-8AB2-6B84760E8F4C)" stroke-width="5.030135669105576"   >
</path>
<g opacity="0.2">
<path d="M542.543 145.374L542.543 436.122L290.748 581.496L38.9528 436.122L38.9528 145.374L290.748 0L542.543 145.374Z"   fill="url(#linear_fill_18A17DBE-6350-4D96-8173-F846C07AC249)" >
</path>
</g>
<path d="M40.1847 437.637L301.016 290.748L543.818 437.637L292.001 590.951L40.1847 437.637Z"   fill="url(#linear_fill_6B7B5D1D-B1E1-4757-99B4-B85A4E865865)" >
</path>
<g mask="url(#mask-6B7B5D1D-B1E1-4757-99B4-B85A4E865865)">
<g filter="url(#filter_51B4FFC7-AD2C-4B0A-9921-D35BFA1CA8C0)">
<path d="M165.466 439.867L296.457 366.39L418.393 439.867L291.93 515.31L165.466 439.867Z"   fill="url(#linear_fill_51B4FFC7-AD2C-4B0A-9921-D35BFA1CA8C0)" >
</path>
</g>
</g>
<g mask="url(#mask-6B7B5D1D-B1E1-4757-99B4-B85A4E865865)">
<g filter="url(#filter_AC034A48-9779-42F6-8C05-322D1C7E763B)">
<circle cx="293.11183310100785" cy="269.47377157757035" r="172.55775595257035"   fill="#4870F2" fill-opacity="0.35">
</circle>
</g>
</g>
<path d="M40.1847 437.629L291.999 588.454L293.112 631.168L40.1847 481.581L40.1847 437.629Z"   fill="url(#linear_fill_9C8FA23D-E204-4AA8-9DFA-ED3289832A2E)" >
</path>
<path d="M292.001 588.454L543.818 437.629L543.818 483.459L293.109 631.168L292.001 588.454Z"   fill="url(#linear_fill_FCFEEAC1-9BFF-4C48-9359-BD271991DB4B)" >
</path>
<g opacity="0.5">
<path d="M438.774 299.901L412.515 286.443L375.101 267.221L401.36 280.679L438.774 299.901Z"   fill="#3AD6D2" >
</path>
<path d="M406.281 278.29L432.313 293.39L430.43 296.84L404.418 281.755C405.082 280.633 405.709 279.474 406.281 278.29Z"   fill="url(#linear_fill_49F9D76F-FC49-43D4-B334-13FFE09A0404)" >
</path>
<path d="M430.429 296.84L425.177 294.148L399.166 279.064L404.418 281.755L430.429 296.84Z"   fill="#1C00FF" fill-opacity="0.92">
</path>
<path d="M406.286 278.288C405.712 279.472 405.08 280.637 404.416 281.758L399.166 279.068C399.831 277.947 400.453 276.782 401.026 275.598L406.286 278.288Z">
</path>
<g mask="url(#mask-45EEE848-4F3C-4CED-9FA8-77950E31FB76)">
<path d="M404.418 281.755L399.166 279.063C399.265 278.896 399.363 278.728 399.461 278.559L404.713 281.25C404.615 281.419 404.517 281.587 404.418 281.755Z"   fill="#A38C3C" >
</path>
</g>
<path d="M404.713 281.25L399.461 278.559C399.971 277.674 400.456 276.767 400.91 275.844L406.162 278.536C405.708 279.458 405.223 280.365 404.713 281.25Z"   fill="#9E873A" >
</path>
<path d="M406.286 278.288C405.712 279.472 405.08 280.637 404.416 281.758L399.166 279.068C399.831 277.947 400.453 276.782 401.026 275.598L406.286 278.288Z">
</path>
<g mask="url(#mask-85D446BA-53EE-493A-B68D-2D2FAD497DC0)">
<path d="M406.161 278.536L400.91 275.844C400.95 275.763 400.99 275.68 401.03 275.598L406.282 278.29C406.242 278.372 406.202 278.454 406.161 278.536Z"   fill="#998338" >
</path>
</g>
<path d="M403.121 277.163C402.6 278.372 402.014 279.541 401.361 280.673C393.484 276.637 382.978 271.26 375.101 267.223C375.754 266.091 376.34 264.912 376.861 263.703L403.121 277.163Z">
</path>
<g mask="url(#mask-AD8DD372-A8C4-410A-B280-DC22DFC7D987)">
<path d="M401.361 280.678L375.101 267.221C375.469 266.583 375.816 265.929 376.144 265.265L402.404 278.722C402.076 279.386 401.729 280.039 401.361 280.678Z"   fill="#636363" >
</path>
</g>
<path d="M403.121 277.163C402.6 278.372 402.014 279.541 401.361 280.673C393.484 276.637 382.978 271.26 375.101 267.223C375.754 266.091 376.34 264.912 376.861 263.703L403.121 277.163Z">
</path>
<g mask="url(#mask-EA672E65-A89A-43D9-874B-71784D786493)">
<path d="M402.403 278.721L376.144 265.265C376.397 264.751 376.637 264.23 376.864 263.703L403.123 277.16C402.897 277.687 402.656 278.208 402.403 278.721Z"   fill="#5F6060" >
</path>
</g>
<path d="M431.266 213.236C431.545 214.001 431.895 214.684 432.303 215.289L396.421 254.388C396.19 253.577 395.895 252.836 395.531 252.178L431.266 213.236Z"   fill="#5479FF" >
</path>
<path d="M395.529 252.176C395.892 252.836 396.189 253.574 396.419 254.386L391.169 251.696C390.94 250.884 390.642 250.145 390.279 249.486L395.529 252.176Z">
</path>
<g mask="url(#mask-5233E746-9591-4B5D-BFD7-50AF2EFB1F77)">
<path d="M396.42 254.388L391.168 251.697C390.937 250.884 390.643 250.145 390.28 249.486L395.531 252.177C395.894 252.836 396.19 253.576 396.42 254.388Z"   fill="#857131" >
</path>
</g>
<path d="M395.53 252.177L390.28 249.488L426.016 210.544L431.267 213.234L395.53 252.177Z"   fill="url(#linear_fill_7B55C650-6A10-4565-9911-379190943771)" >
</path>
<path d="M401.471 252.62C402.115 253.34 402.699 254.141 403.211 255.02C395.332 250.983 383.377 247.649 376.951 241.56C376.442 240.681 375.858 239.88 375.211 239.16L401.471 252.62Z">
</path>
<g mask="url(#mask-50F04CE5-3A28-452E-BAFE-F5458FCF7189)">
<path d="M403.211 255.017L376.95 241.561C376.441 240.682 375.858 239.88 375.211 239.16L401.472 252.616C402.116 253.336 402.698 254.139 403.211 255.017Z"   fill="#535353" >
</path>
</g>
<path d="M377.48 235.871L403.739 249.327C400.87 247.857 397.4 247.488 393.629 248.499L367.37 235.042C371.141 234.032 374.611 234.4 377.48 235.871Z" fill-rule="evenodd"  fill="#6086FF" >
</path>
<path d="M347.479 292.502L393.629 292.502L393.629 235.042L347.479 235.042L347.479 292.502">
</path>
<g mask="url(#mask-8A8974B2-F66F-409B-8B21-92870F2A4837)">
<path d="M381.649 292.498L355.389 279.042C350.336 276.451 347.179 270.435 347.502 262.529C348.014 250.124 356.963 237.829 367.37 235.042L393.63 248.498C383.223 251.285 374.274 263.581 373.762 275.985C373.434 283.891 376.595 289.907 381.649 292.498Z"   fill="#3AD6D2" >
</path>
</g>
<path d="M381.647 292.498L355.386 279.041C350.336 276.454 347.178 270.438 347.503 262.528C347.537 261.669 347.612 260.814 347.725 259.961L373.986 273.419C373.874 274.271 373.798 275.127 373.761 275.986C373.436 283.895 376.593 289.908 381.647 292.498Z" fill-rule="evenodd"  fill="#3AD6D2" >
</path>
<path d="M373.986 273.418L347.726 259.961C347.866 258.915 348.062 257.873 348.312 256.843L374.571 270.3C374.322 271.329 374.126 272.372 373.986 273.418Z"   fill="#3AD6D2" >
</path>
<path d="M374.57 270.3L348.312 256.843C348.514 256.009 348.751 255.182 349.021 254.366L375.279 267.822C375.01 268.64 374.772 269.467 374.57 270.3Z"   fill="#3AD6D2" >
</path>
<path d="M375.28 267.823L349.02 254.366C349.266 253.617 349.54 252.879 349.84 252.15L376.1 265.607C375.799 266.336 375.526 267.075 375.28 267.823Z"   fill="#3AD6D2" >
</path>
<path d="M376.1 265.607L349.84 252.15C350.128 251.452 350.438 250.765 350.77 250.09L377.03 263.546C376.698 264.221 376.388 264.909 376.1 265.607Z"   fill="#3AD6D2" >
</path>
<path d="M377.03 263.546L350.77 250.09C351.1 249.419 351.45 248.762 351.821 248.117L378.082 261.573C377.71 262.218 377.358 262.877 377.03 263.546Z"   fill="#3AD6D2" >
</path>
<path d="M378.081 261.573L351.822 248.116C352.204 247.454 352.608 246.807 353.031 246.176L379.289 259.633C378.866 260.263 378.463 260.911 378.081 261.573Z"   fill="#3AD6D2" >
</path>
<path d="M379.289 259.633L353.03 246.176C353.478 245.506 353.948 244.856 354.441 244.228L380.7 257.684C380.208 258.313 379.737 258.963 379.289 259.633Z"   fill="#3AD6D2" >
</path>
<path d="M380.7 257.684L354.441 244.228C354.989 243.527 355.56 242.854 356.155 242.211L382.414 255.668C381.819 256.31 381.248 256.983 380.7 257.684Z"   fill="#3AD6D2" >
</path>
<path d="M382.415 255.668L356.154 242.21C356.895 241.411 357.669 240.659 358.472 239.961L384.733 253.417C383.93 254.116 383.155 254.868 382.415 255.668Z"   fill="#3AD6D2" >
</path>
<path d="M347.503 262.529C347.175 270.435 350.336 276.451 355.385 279.042L381.649 292.498C376.596 289.907 373.439 283.891 373.762 275.985C374.274 263.581 383.223 251.285 393.63 248.498L367.37 235.042C356.963 237.829 348.01 250.124 347.503 262.529Z"   fill="url(#linear_fill_0EC3DDBA-D68D-43FC-98EB-CBC316F5DD0F)" >
</path>
<g mask="url(#mask-0EC3DDBA-D68D-43FC-98EB-CBC316F5DD0F)">
<path d="M384.732 253.418L358.473 239.961C361.173 237.618 364.204 235.891 367.371 235.042L393.63 248.498C390.462 249.347 387.432 251.075 384.732 253.418Z"   fill="#6086FF" >
</path>
</g>
<path d="M393.629 248.499C399.225 247.001 404.157 248.536 407.446 252.204C408.095 252.926 408.675 253.725 409.188 254.603C410.918 257.572 411.836 261.406 411.654 265.832C411.498 269.569 410.587 273.292 409.1 276.748C408.581 277.957 407.989 279.133 407.336 280.264C403.66 286.648 398.007 291.649 391.786 293.317C381.3 296.126 373.253 288.381 373.762 275.985C374.274 263.584 383.219 251.289 393.629 248.499Z" stroke="url(#linear_border_A5DD834E-943D-4262-BC7C-C6BC90580445)" stroke-width="1.181902438031304"      fill="url(#linear_fill_A5DD834E-943D-4262-BC7C-C6BC90580445)" >
</path>
<path d="M428.225 187.839L464.555 187.839L464.555 172.979L428.225 172.979L428.225 187.839">
</path>
<g mask="url(#mask-D244AAF5-D2E6-4A9A-94EA-B0FB6833F6E0)">
<path d="M438.3 174.379L464.559 187.835C461.696 186.369 458.241 185.994 454.484 187.002L428.225 173.544C431.978 172.538 435.437 172.911 438.3 174.379Z"   fill="#6086FF" >
</path>
</g>
<path d="M437.672 226.64C438.24 227.467 438.872 228.22 439.569 228.88C440.46 229.731 441.456 230.443 442.536 230.995L416.277 217.54C415.197 216.982 414.2 216.276 413.31 215.426C412.613 214.759 411.981 214.012 411.413 213.185C409.304 210.094 408.155 205.918 408.358 201.029C408.865 188.631 417.819 176.331 428.225 173.544L454.485 186.999C444.078 189.791 435.125 202.086 434.617 214.489C434.414 219.372 435.563 223.555 437.672 226.64Z" fill-rule="evenodd"  fill="#3AD6D2" >
</path>
<path d="M416.275 217.545C415.195 216.987 414.195 216.275 413.305 215.425C412.608 214.758 411.982 214.012 411.415 213.185C409.306 210.094 408.152 205.914 408.355 201.025C408.862 188.627 417.818 176.331 428.225 173.545L454.485 186.995C444.078 189.787 435.127 202.081 434.615 214.485C434.412 219.368 435.566 223.56 437.675 226.645C438.242 227.472 438.868 228.218 439.565 228.885C440.448 229.728 441.439 230.432 442.509 230.981L416.275 217.545Z">
</path>
<g mask="url(#mask-62DF57BA-E934-449F-B989-8342912C4D57)">
<path d="M416.276 217.537C415.195 216.984 414.2 216.275 413.307 215.423C412.613 214.759 411.98 214.014 411.416 213.185C409.302 210.098 408.157 205.917 408.359 201.028C408.393 200.173 408.468 199.317 408.581 198.465L434.841 211.922C434.728 212.775 434.653 213.63 434.615 214.486C434.417 219.372 435.562 223.552 437.673 226.642C438.24 227.468 438.873 228.217 439.567 228.88C440.46 229.733 441.455 230.442 442.536 230.995L416.276 217.537Z" fill-rule="evenodd"  fill="#3AD6D2" >
</path>
</g>
<path d="M434.841 211.921L408.581 198.465C408.721 197.418 408.917 196.377 409.167 195.348L435.426 208.804C435.177 209.835 434.981 210.875 434.841 211.921Z"   fill="#3AD6D2" >
</path>
<path d="M435.425 208.804L409.167 195.347C409.369 194.514 409.606 193.687 409.876 192.871L436.134 206.328C435.865 207.144 435.627 207.971 435.425 208.804Z"   fill="#3AD6D2" >
</path>
<path d="M436.134 206.327L409.875 192.87C410.121 192.123 410.394 191.383 410.695 190.654L436.955 204.111C436.654 204.84 436.381 205.578 436.134 206.327Z"   fill="#3AD6D2" >
</path>
<path d="M436.955 204.111L410.695 190.654C410.983 189.956 411.293 189.269 411.625 188.594L437.884 202.05C437.553 202.725 437.243 203.413 436.955 204.111Z"   fill="#3AD6D2" >
</path>
<path d="M437.886 202.05L411.625 188.593C411.955 187.922 412.305 187.265 412.676 186.62L438.937 200.076C438.566 200.721 438.213 201.38 437.886 202.05Z"   fill="#3AD6D2" >
</path>
<path d="M438.937 200.077L412.677 186.621C413.059 185.957 413.463 185.31 413.886 184.679L440.145 198.135C439.722 198.766 439.318 199.415 438.937 200.077Z"   fill="#3AD6D2" >
</path>
<path d="M440.145 198.136L413.885 184.679C414.334 184.009 414.804 183.359 415.296 182.73L441.556 196.187C441.064 196.815 440.593 197.465 440.145 198.136Z"   fill="#3AD6D2" >
</path>
<path d="M441.555 196.186L415.297 182.729C415.845 182.028 416.415 181.355 417.011 180.713L443.27 194.17C442.674 194.812 442.104 195.485 441.555 196.186Z"   fill="#3AD6D2" >
</path>
<path d="M443.271 194.17L417.011 180.713C417.751 179.913 418.525 179.161 419.328 178.463L445.589 191.921C444.786 192.618 444.011 193.37 443.271 194.17Z"   fill="#3AD6D2" >
</path>
<path d="M439.569 228.881C438.872 228.214 438.24 227.467 437.672 226.64C435.563 223.555 434.414 219.373 434.617 214.489C435.129 202.086 444.078 189.792 454.484 186.999L428.225 173.545C417.818 176.331 408.865 188.631 408.358 201.029C408.155 205.918 409.304 210.094 411.413 213.185C411.98 214.013 412.613 214.759 413.31 215.426C414.2 216.276 415.197 216.983 416.277 217.54L442.536 230.995C441.456 230.443 440.459 229.731 439.569 228.881Z" fill-rule="evenodd"  fill="url(#linear_fill_67650151-E241-4896-8ADE-82F5BB0FAF07)" >
</path>
<g mask="url(#mask-67650151-E241-4896-8ADE-82F5BB0FAF07)">
<path d="M445.59 191.92L419.329 178.463C422.029 176.121 425.059 174.393 428.223 173.544L454.484 187.001C451.32 187.85 448.29 189.577 445.59 191.92Z"   fill="#6086FF" >
</path>
</g>
<path d="M454.484 187.001C464.894 184.212 473.017 192.024 472.508 204.335C472 216.733 463.123 229.012 452.641 231.82C447.432 233.212 442.823 231.98 439.568 228.879C438.873 228.217 438.24 227.468 437.675 226.641C435.561 223.553 434.416 219.371 434.617 214.486C435.125 202.088 444.075 189.791 454.484 187.001Z" stroke="url(#linear_border_6F89D76D-9861-4855-910E-05FE228B667B)" stroke-width="1.181902438031304"      fill="url(#linear_fill_6F89D76D-9861-4855-910E-05FE228B667B)" >
</path>
<path d="M454.867 276.154L481.127 289.611C478.258 288.142 474.788 287.772 471.021 288.782L444.761 275.325C448.528 274.315 451.998 274.685 454.867 276.154Z"   fill="#6086FF" >
</path>
<path d="M459.072 332.777L432.813 319.322C427.741 316.719 424.571 310.681 424.894 302.81C425.401 290.498 434.35 278.118 444.761 275.326L471.02 288.781C460.609 291.573 451.661 303.953 451.153 316.265C450.83 324.136 454 330.18 459.072 332.777Z" fill-rule="evenodd"  fill="#3AD6D2" >
</path>
<path d="M459.071 332.776L432.812 319.32C427.74 316.72 424.57 310.681 424.894 302.812C424.929 301.964 425.004 301.119 425.113 300.274L451.376 313.73C451.263 314.575 451.188 315.42 451.154 316.268C450.829 324.137 453.999 330.179 459.071 332.776Z" fill-rule="evenodd"  fill="#3AD6D2" >
</path>
<path d="M451.375 313.73L425.115 300.273C425.255 299.235 425.448 298.199 425.697 297.174L451.957 310.631C451.707 311.656 451.514 312.69 451.375 313.73Z"   fill="#3AD6D2" >
</path>
<path d="M451.958 310.63L425.697 297.174C425.9 296.341 426.134 295.516 426.404 294.7L452.664 308.156C452.394 308.972 452.16 309.799 451.958 310.63Z"   fill="#3AD6D2" >
</path>
<path d="M452.663 308.157L426.404 294.701C426.651 293.951 426.927 293.21 427.228 292.479L453.486 305.935C453.186 306.666 452.912 307.407 452.663 308.157Z"   fill="#3AD6D2" >
</path>
<path d="M453.488 305.936L427.227 292.479C427.515 291.779 427.828 291.088 428.159 290.409L454.42 303.866C454.086 304.545 453.773 305.235 453.488 305.936Z"   fill="#3AD6D2" >
</path>
<path d="M454.419 303.866L428.16 290.41C428.491 289.735 428.846 289.073 429.22 288.424L455.479 301.88C455.105 302.53 454.752 303.191 454.419 303.866Z"   fill="#3AD6D2" >
</path>
<path d="M455.48 301.881L429.219 288.424C429.604 287.758 430.01 287.107 430.434 286.472L456.694 299.929C456.269 300.564 455.862 301.214 455.48 301.881Z"   fill="#3AD6D2" >
</path>
<path d="M456.694 299.928L430.435 286.471C430.886 285.797 431.359 285.144 431.854 284.511L458.114 297.969C457.618 298.601 457.145 299.254 456.694 299.928Z"   fill="#3AD6D2" >
</path>
<path d="M458.114 297.968L431.854 284.511C432.405 283.807 432.979 283.128 433.578 282.483L459.838 295.939C459.239 296.585 458.665 297.263 458.114 297.968Z"   fill="#3AD6D2" >
</path>
<path d="M459.837 295.939L433.578 282.482C434.318 281.683 435.093 280.93 435.899 280.231L462.158 293.688C461.355 294.386 460.58 295.14 459.837 295.939Z"   fill="#3AD6D2" >
</path>
<path d="M424.893 302.81C424.57 310.681 427.741 316.719 432.813 319.321L459.072 332.776C454 330.18 450.83 324.136 451.153 316.265C451.66 303.953 460.609 291.573 471.02 288.78L444.761 275.325C434.349 278.118 425.401 290.498 424.893 302.81Z" fill-rule="evenodd"  fill="url(#linear_fill_BE5E8912-7831-48AD-B77E-03755EADF2EC)" >
</path>
<path d="M462.159 293.688L435.898 280.23C438.588 277.895 441.609 276.17 444.759 275.326L471.021 288.781C467.867 289.628 464.85 291.352 462.159 293.688Z"   fill="#6086FF" >
</path>
<path d="M471.019 288.783C481.428 285.993 489.549 293.719 489.041 306.114C488.533 318.518 479.66 330.793 469.175 333.601C458.69 336.409 450.644 328.578 451.153 316.266C451.661 303.958 460.61 291.572 471.019 288.783Z" stroke="url(#linear_border_79DCE53B-C4C7-4D92-88E8-DEC22BAD8650)" stroke-width="1.181902438031304"      fill="url(#linear_fill_79DCE53B-C4C7-4D92-88E8-DEC22BAD8650)" >
</path>
</g>
<g opacity="0.5">
<path d="M147.449 191.166L173.708 177.708L211.123 158.486L184.864 171.943L147.449 191.166Z"   fill="#3AD6D2" >
</path>
<path d="M179.942 169.555L153.91 184.654L155.793 188.104L181.806 173.02C181.142 171.898 180.514 170.738 179.942 169.555Z"   fill="url(#linear_fill_DFC90EE2-54C4-455E-A02C-7F8F0A8CF35D)" >
</path>
<path d="M155.794 188.104L161.047 185.413L187.058 170.329L181.805 173.02L155.794 188.104Z"   fill="#1C00FF" fill-opacity="0.92">
</path>
<path d="M179.942 169.553L185.192 166.863C185.764 168.047 186.396 169.212 187.062 170.333L181.802 173.023C181.137 171.902 180.515 170.737 179.942 169.553Z">
</path>
<g mask="url(#mask-45F50D1E-7708-4D5F-A91D-2FFE2F94F8FC)">
<path d="M181.806 173.02L187.058 170.328C186.958 170.161 186.86 169.993 186.762 169.824L181.51 172.515C181.608 172.684 181.706 172.852 181.806 173.02Z"   fill="#A38C3C" >
</path>
</g>
<path d="M181.51 172.515L186.762 169.824C186.253 168.939 185.767 168.032 185.314 167.109L180.062 169.801C180.515 170.723 181.001 171.63 181.51 172.515Z"   fill="#9E873A" >
</path>
<path d="M179.942 169.553L185.192 166.863C185.764 168.047 186.396 169.212 187.062 170.333L181.802 173.023C181.137 171.902 180.515 170.737 179.942 169.553Z">
</path>
<g mask="url(#mask-072E9668-4E72-45ED-987B-BAFC7708849B)">
<path d="M180.062 169.801L185.314 167.109C185.273 167.028 185.234 166.945 185.193 166.863L179.942 169.555C179.982 169.637 180.022 169.719 180.062 169.801Z"   fill="#998338" >
</path>
</g>
<path d="M183.1 168.428L209.36 154.968C209.882 156.177 210.467 157.356 211.12 158.488C203.243 162.525 192.737 167.902 184.86 171.938C184.207 170.806 183.622 169.637 183.1 168.428Z">
</path>
<g mask="url(#mask-7D6E3161-E7D5-4669-9A71-DD3334372279)">
<path d="M184.863 171.942L211.123 158.486C210.754 157.848 210.408 157.194 210.08 156.53L183.82 169.987C184.148 170.651 184.494 171.304 184.863 171.942Z"   fill="#636363" >
</path>
</g>
<path d="M183.1 168.428L209.36 154.968C209.882 156.177 210.467 157.356 211.12 158.488C203.243 162.525 192.737 167.902 184.86 171.938C184.207 170.806 183.622 169.637 183.1 168.428Z">
</path>
<g mask="url(#mask-34A99B03-B1D8-42D4-A361-B9A9E289067B)">
<path d="M183.821 169.986L210.08 156.53C209.826 156.016 209.586 155.495 209.359 154.968L183.1 168.424C183.327 168.952 183.567 169.473 183.821 169.986Z"   fill="#5F6060" >
</path>
</g>
<path d="M154.958 104.5C154.678 105.266 154.329 105.949 153.921 106.554L189.802 145.653C190.034 144.842 190.328 144.101 190.692 143.443L154.958 104.5Z"   fill="#5479FF" >
</path>
<path d="M189.804 145.653L195.055 142.962C195.286 142.149 195.581 141.41 195.944 140.751L190.692 143.442C190.329 144.101 190.034 144.841 189.804 145.653Z"   fill="#857131" >
</path>
<path d="M190.693 143.442L195.944 140.753L160.207 101.809L154.957 104.499L190.693 143.442Z"   fill="url(#linear_fill_463B81D4-012F-49E2-8C52-A688E6C9CE9D)" >
</path>
<path d="M184.753 143.885L211.013 130.425C210.366 131.145 209.782 131.946 209.273 132.825C202.847 138.914 190.892 142.247 183.013 146.285C183.525 145.406 184.109 144.605 184.753 143.885Z">
</path>
<g mask="url(#mask-41F0AF3D-1F93-4599-9B14-B67428E165B2)">
<path d="M183.013 146.282L209.273 132.825C209.783 131.947 210.365 131.145 211.012 130.425L184.751 143.881C184.107 144.601 183.525 145.404 183.013 146.282Z"   fill="#535353" >
</path>
</g>
<path d="M208.743 127.136L182.484 140.592C185.354 139.122 188.823 138.753 192.595 139.763L218.854 126.307C215.082 125.297 211.613 125.665 208.743 127.136Z" fill-rule="evenodd"  fill="#6086FF" >
</path>
<path d="M192.594 126.307L192.594 183.767L238.744 183.767L238.744 126.307L192.594 126.307">
</path>
<g mask="url(#mask-5D3353A3-64E2-449E-87C3-A91AA7695FCB)">
<path d="M204.574 183.763L230.834 170.307C235.888 167.716 239.044 161.7 238.721 153.794C238.209 141.389 229.26 129.094 218.853 126.307L192.594 139.763C203.001 142.55 211.949 154.846 212.462 167.25C212.789 175.156 209.628 181.172 204.574 183.763Z"   fill="#3AD6D2" >
</path>
</g>
<path d="M204.577 183.763L230.838 170.306C235.888 167.719 239.045 161.703 238.72 153.793C238.686 152.934 238.611 152.079 238.498 151.226L212.237 164.683C212.35 165.536 212.425 166.392 212.463 167.251C212.787 175.16 209.63 181.173 204.577 183.763Z" fill-rule="evenodd"  fill="#3AD6D2" >
</path>
<path d="M212.237 164.683L238.497 151.226C238.357 150.18 238.162 149.137 237.912 148.108L211.652 161.565C211.902 162.594 212.098 163.637 212.237 164.683Z"   fill="#3AD6D2" >
</path>
<path d="M211.653 161.565L237.912 148.107C237.709 147.274 237.472 146.447 237.202 145.631L210.944 159.087C211.214 159.905 211.451 160.732 211.653 161.565Z"   fill="#3AD6D2" >
</path>
<path d="M210.944 159.088L237.204 145.631C236.957 144.882 236.684 144.144 236.383 143.415L210.123 156.872C210.424 157.601 210.698 158.34 210.944 159.088Z"   fill="#3AD6D2" >
</path>
<path d="M210.124 156.872L236.383 143.415C236.095 142.717 235.785 142.03 235.454 141.355L209.194 154.811C209.526 155.486 209.836 156.173 210.124 156.872Z"   fill="#3AD6D2" >
</path>
<path d="M209.193 154.811L235.454 141.355C235.123 140.684 234.774 140.027 234.402 139.382L208.142 152.838C208.513 153.483 208.865 154.141 209.193 154.811Z"   fill="#3AD6D2" >
</path>
<path d="M208.143 152.838L234.401 139.381C234.02 138.719 233.616 138.072 233.193 137.441L206.934 150.898C207.357 151.528 207.761 152.176 208.143 152.838Z"   fill="#3AD6D2" >
</path>
<path d="M206.934 150.898L233.194 137.441C232.745 136.771 232.275 136.121 231.783 135.492L205.523 148.949C206.016 149.577 206.486 150.228 206.934 150.898Z"   fill="#3AD6D2" >
</path>
<path d="M205.524 148.949L231.783 135.492C231.235 134.792 230.664 134.118 230.068 133.476L203.809 146.933C204.405 147.575 204.976 148.248 205.524 148.949Z"   fill="#3AD6D2" >
</path>
<path d="M203.808 146.933L230.069 133.475C229.329 132.676 228.554 131.923 227.751 131.226L201.491 144.682C202.294 145.381 203.068 146.133 203.808 146.933Z"   fill="#3AD6D2" >
</path>
<path d="M238.721 153.794C239.049 161.7 235.887 167.716 230.839 170.307L204.575 183.763C209.628 181.172 212.785 175.156 212.462 167.25C211.949 154.846 203.001 142.55 192.594 139.763L218.853 126.307C229.26 129.094 238.213 141.389 238.721 153.794Z"   fill="url(#linear_fill_00D709C0-83D3-4230-8873-D6D438BC578C)" >
</path>
<g mask="url(#mask-00D709C0-83D3-4230-8873-D6D438BC578C)">
<path d="M201.492 144.683L227.75 131.226C225.05 128.883 222.02 127.156 218.852 126.307L192.594 139.763C195.761 140.612 198.792 142.34 201.492 144.683Z"   fill="#6086FF" >
</path>
</g>
<path d="M192.594 139.764C186.998 138.266 182.066 139.801 178.777 143.469C178.129 144.19 177.548 144.99 177.036 145.868C175.306 148.837 174.388 152.67 174.57 157.096C174.726 160.833 175.636 164.556 177.123 168.013C177.643 169.221 178.235 170.398 178.887 171.529C182.563 177.913 188.216 182.914 194.438 184.582C204.924 187.39 212.97 179.646 212.462 167.25C211.95 154.849 203.004 142.554 192.594 139.764Z" stroke="url(#linear_border_83774122-A28A-4D2F-BFD5-C46A1AA0BA5D)" stroke-width="1.181902438031304"      fill="url(#linear_fill_83774122-A28A-4D2F-BFD5-C46A1AA0BA5D)" >
</path>
<path d="M121.664 64.2444L121.664 79.1044L157.994 79.1044L157.994 64.2444L121.664 64.2444">
</path>
<g mask="url(#mask-8D7D99B0-55E8-4A6F-ADF0-730B30757E7B)">
<path d="M147.923 65.6437L121.664 79.0998C124.527 77.6335 127.983 77.2592 131.74 78.2664L157.999 64.8088C154.245 63.8031 150.786 64.1759 147.923 65.6437Z"   fill="#6086FF" >
</path>
</g>
<path d="M151.607 105.754C151.81 110.637 150.66 114.82 148.551 117.905C147.984 118.732 147.352 119.485 146.655 120.145C145.764 120.996 144.767 121.708 143.687 122.259L169.946 108.805C171.026 108.247 172.023 107.541 172.914 106.69C173.611 106.024 174.243 105.277 174.811 104.45C176.92 101.359 178.069 97.1825 177.866 92.2935C177.358 79.8957 168.405 67.5957 157.998 64.8093L131.739 78.2641C142.146 81.0562 151.099 93.3505 151.607 105.754Z" fill-rule="evenodd"  fill="#3AD6D2" >
</path>
<path d="M172.909 106.689C172.018 107.54 171.029 108.252 169.949 108.809L143.715 122.246C144.785 121.696 145.776 120.993 146.659 120.149C147.356 119.483 147.981 118.737 148.549 117.909C150.658 114.824 151.812 110.633 151.609 105.749C151.097 93.3458 142.146 81.0514 131.739 78.2593L157.999 64.8093C168.406 67.5957 177.361 79.8916 177.869 92.2893C178.072 97.1783 176.918 101.359 174.809 104.449C174.241 105.277 173.606 106.023 172.909 106.689Z">
</path>
<g mask="url(#mask-D1663C32-41EB-4906-A591-7C0C729A2E1C)">
<path d="M169.947 108.802C171.028 108.249 172.023 107.54 172.916 106.687C173.61 106.024 174.243 105.279 174.807 104.449C176.921 101.362 178.067 97.1821 177.865 92.2928C177.831 91.4373 177.755 90.5818 177.643 89.7295L151.383 103.187C151.495 104.039 151.571 104.895 151.608 105.75C151.807 110.636 150.661 114.817 148.551 117.907C147.983 118.733 147.35 119.481 146.656 120.145C145.763 120.997 144.768 121.706 143.687 122.259L169.947 108.802Z" fill-rule="evenodd"  fill="#3AD6D2" >
</path>
</g>
<path d="M151.382 103.186L177.642 89.7299C177.503 88.6825 177.307 87.6416 177.057 86.6124L150.797 100.069C151.047 101.099 151.243 102.14 151.382 103.186Z"   fill="#3AD6D2" >
</path>
<path d="M150.798 100.069L177.057 86.6117C176.855 85.7785 176.617 84.9515 176.348 84.1357L150.089 97.5928C150.359 98.4086 150.596 99.2356 150.798 100.069Z"   fill="#3AD6D2" >
</path>
<path d="M150.089 97.5922L176.349 84.1353C176.102 83.3877 175.829 82.648 175.528 81.9192L149.269 95.376C149.569 96.1048 149.843 96.843 150.089 97.5922Z"   fill="#3AD6D2" >
</path>
<path d="M149.269 95.3758L175.528 81.9191C175.24 81.2208 174.93 80.5334 174.599 79.8584L148.339 93.3151C148.671 93.9901 148.981 94.6775 149.269 95.3758Z"   fill="#3AD6D2" >
</path>
<path d="M148.338 93.3148L174.599 79.8582C174.268 79.1869 173.919 78.5296 173.547 77.8846L147.286 91.3412C147.658 91.9862 148.01 92.6451 148.338 93.3148Z"   fill="#3AD6D2" >
</path>
<path d="M147.287 91.3414L173.546 77.8854C173.164 77.2217 172.761 76.575 172.338 75.9437L146.078 89.3997C146.501 90.031 146.905 90.6793 147.287 91.3414Z"   fill="#3AD6D2" >
</path>
<path d="M146.078 89.4003L172.338 75.9434C171.89 75.2733 171.42 74.6232 170.927 73.9946L144.667 87.4515C145.16 88.08 145.63 88.7301 146.078 89.4003Z"   fill="#3AD6D2" >
</path>
<path d="M144.668 87.4511L170.927 73.9942C170.379 73.2932 169.808 72.6202 169.212 71.978L142.953 85.435C143.549 86.0771 144.12 86.7502 144.668 87.4511Z"   fill="#3AD6D2" >
</path>
<path d="M142.952 85.4344L169.213 71.9773C168.473 71.1778 167.698 70.4255 166.895 69.7281L140.635 83.1853C141.438 83.8826 142.212 84.635 142.952 85.4344Z"   fill="#3AD6D2" >
</path>
<path d="M146.655 120.145C147.352 119.479 147.984 118.732 148.551 117.905C150.661 114.82 151.81 110.637 151.607 105.754C151.094 93.3505 142.146 81.0562 131.739 78.2641L157.998 64.8093C168.405 67.5957 177.358 79.8957 177.866 92.2935C178.069 97.1825 176.92 101.359 174.811 104.45C174.243 105.277 173.611 106.024 172.914 106.69C172.023 107.541 171.026 108.247 169.947 108.805L143.687 122.259C144.767 121.708 145.764 120.996 146.655 120.145Z" fill-rule="evenodd"  fill="url(#linear_fill_BD931C98-053B-4F09-93CA-EADE1D577360)" >
</path>
<g mask="url(#mask-BD931C98-053B-4F09-93CA-EADE1D577360)">
<path d="M140.633 83.1844L166.894 69.7282C164.194 67.3854 161.164 65.6581 158 64.8092L131.739 78.2654C134.903 79.1143 137.934 80.8416 140.633 83.1844Z"   fill="#6086FF" >
</path>
</g>
<path d="M131.739 78.266C121.329 75.4767 113.207 83.2887 113.715 95.5997C114.224 107.998 123.101 120.277 133.583 123.084C138.792 124.477 143.401 123.245 146.656 120.143C147.35 119.482 147.984 118.733 148.549 117.905C150.662 114.817 151.808 110.636 151.607 105.751C151.098 93.3525 142.149 81.0554 131.739 78.266Z" stroke="url(#linear_border_8161868F-6DB2-41A7-986D-2447368A9203)" stroke-width="1.181902438031304"      fill="url(#linear_fill_8161868F-6DB2-41A7-986D-2447368A9203)" >
</path>
<path d="M131.357 167.419L105.096 180.875C107.966 179.406 111.435 179.037 115.203 180.047L141.463 166.59C137.695 165.58 134.226 165.95 131.357 167.419Z"   fill="#6086FF" >
</path>
<path d="M127.151 224.041L153.411 210.586C158.482 207.984 161.653 201.946 161.33 194.075C160.822 181.763 151.874 169.382 141.462 166.59L115.203 180.045C125.615 182.837 134.563 195.218 135.071 207.53C135.394 215.401 132.223 221.445 127.151 224.041Z" fill-rule="evenodd"  fill="#3AD6D2" >
</path>
<path d="M127.152 224.041L153.412 210.585C158.483 207.985 161.654 201.946 161.329 194.077C161.295 193.229 161.22 192.384 161.11 191.539L134.847 204.995C134.96 205.84 135.035 206.685 135.07 207.533C135.395 215.402 132.224 221.444 127.152 224.041Z" fill-rule="evenodd"  fill="#3AD6D2" >
</path>
<path d="M134.849 204.995L161.108 191.538C160.969 190.5 160.776 189.464 160.526 188.439L134.266 201.896C134.516 202.921 134.709 203.955 134.849 204.995Z"   fill="#3AD6D2" >
</path>
<path d="M134.266 201.895L160.526 188.439C160.324 187.606 160.089 186.781 159.82 185.965L133.559 199.421C133.829 200.237 134.064 201.064 134.266 201.895Z"   fill="#3AD6D2" >
</path>
<path d="M133.56 199.422L159.819 185.966C159.573 185.216 159.296 184.475 158.996 183.744L132.737 197.2C133.038 197.931 133.311 198.672 133.56 199.422Z"   fill="#3AD6D2" >
</path>
<path d="M132.736 197.201L158.997 183.744C158.709 183.044 158.396 182.353 158.064 181.674L131.803 195.131C132.138 195.809 132.45 196.5 132.736 197.201Z"   fill="#3AD6D2" >
</path>
<path d="M131.805 195.131L158.063 181.675C157.733 181 157.377 180.338 157.003 179.689L130.745 193.145C131.119 193.795 131.471 194.456 131.805 195.131Z"   fill="#3AD6D2" >
</path>
<path d="M130.743 193.146L157.004 179.689C156.62 179.023 156.213 178.371 155.79 177.737L129.529 191.194C129.955 191.829 130.361 192.479 130.743 193.146Z"   fill="#3AD6D2" >
</path>
<path d="M129.53 191.193L155.789 177.736C155.338 177.062 154.864 176.408 154.369 175.776L128.11 189.234C128.605 189.866 129.079 190.519 129.53 191.193Z"   fill="#3AD6D2" >
</path>
<path d="M128.109 189.233L154.37 175.776C153.818 175.072 153.245 174.393 152.646 173.748L126.385 187.204C126.984 187.85 127.558 188.528 128.109 189.233Z"   fill="#3AD6D2" >
</path>
<path d="M126.386 187.204L152.645 173.747C151.905 172.948 151.131 172.195 150.325 171.496L124.066 184.953C124.869 185.651 125.643 186.405 126.386 187.204Z"   fill="#3AD6D2" >
</path>
<path d="M161.33 194.075C161.653 201.946 158.483 207.984 153.411 210.586L127.151 224.041C132.223 221.445 135.394 215.401 135.071 207.53C134.563 195.218 125.614 182.837 115.203 180.045L141.462 166.59C151.874 169.382 160.822 181.763 161.33 194.075Z" fill-rule="evenodd"  fill="url(#linear_fill_B786868E-BDDB-456A-A2CC-AA874515BB1F)" >
</path>
<g mask="url(#mask-B786868E-BDDB-456A-A2CC-AA874515BB1F)">
<path d="M124.064 184.953L150.325 171.495C147.635 169.159 144.614 167.435 141.464 166.591L115.203 180.046C118.357 180.893 121.374 182.617 124.064 184.953Z"   fill="#6086FF" >
</path>
</g>
<path d="M115.205 180.048C104.796 177.258 96.6741 184.984 97.1824 197.378C97.6907 209.782 106.563 222.058 117.048 224.866C127.533 227.674 135.579 219.843 135.071 207.531C134.562 195.223 125.614 182.837 115.205 180.048Z" stroke="url(#linear_border_47BEE9AC-A2A2-4C48-BCE6-D4E0206C9527)" stroke-width="1.181902438031304"      fill="url(#linear_fill_47BEE9AC-A2A2-4C48-BCE6-D4E0206C9527)" >
</path>
</g>
<path d="M336.39 361.584L274.989 330.117L187.504 285.17L248.904 316.637L336.39 361.584Z"   fill="#3AD6D2" >
</path>
<path d="M260.412 311.052L321.281 346.358L316.879 354.426L256.055 319.154C257.607 316.53 259.075 313.819 260.412 311.052Z"   fill="url(#linear_fill_48103E1F-D549-4463-9109-AD067631BAD6)" >
</path>
<path d="M316.876 354.425L304.595 348.133L243.774 312.861L256.056 319.154L316.876 354.425Z"   fill="#1C00FF" fill-opacity="0.92">
</path>
<path d="M256.055 319.154L243.775 312.861C244.007 312.469 244.237 312.076 244.465 311.681L256.745 317.974C256.517 318.369 256.287 318.762 256.055 319.154Z"   fill="#A38C3C" >
</path>
<path d="M256.745 317.974L244.465 311.681C245.657 309.611 246.792 307.49 247.852 305.334L260.133 311.627C259.072 313.784 257.938 315.905 256.745 317.974Z"   fill="#9E873A" >
</path>
<path d="M260.414 311.048C259.073 313.817 257.608 316.535 256.054 319.158L243.774 312.858C245.33 310.235 246.795 307.527 248.134 304.758L260.414 311.048Z">
</path>
<g mask="url(#mask-10D9EC18-6FC5-4545-9A09-7F49B57D0CC8)">
<path d="M260.132 311.627L247.852 305.334C247.947 305.143 248.04 304.95 248.134 304.758L260.414 311.052C260.319 311.243 260.226 311.436 260.132 311.627Z"   fill="#998338" >
</path>
</g>
<path d="M253.024 308.404C251.806 311.23 250.431 313.987 248.904 316.634C230.486 307.196 205.923 294.603 187.504 285.164C189.031 282.517 190.406 279.77 191.624 276.944L253.024 308.404Z">
</path>
<g mask="url(#mask-96EEA46E-9908-4D92-8984-06B194F03DBF)">
<path d="M248.906 316.635L187.504 285.17C188.366 283.678 189.177 282.15 189.943 280.596L251.345 312.061C250.579 313.615 249.768 315.143 248.906 316.635Z"   fill="#636363" >
</path>
</g>
<path d="M253.024 308.404C251.806 311.23 250.431 313.987 248.904 316.634C230.486 307.196 205.923 294.603 187.504 285.164C189.031 282.517 190.406 279.77 191.624 276.944L253.024 308.404Z">
</path>
<g mask="url(#mask-F302A59F-C994-43C2-9F1F-F7D2FAC5277F)">
<path d="M251.343 312.061L189.943 280.596C190.536 279.395 191.097 278.176 191.627 276.944L253.028 308.409C252.498 309.641 251.936 310.86 251.343 312.061Z"   fill="#5F6060" >
</path>
</g>
<path d="M318.833 158.938C319.486 160.728 320.303 162.325 321.258 163.74L237.357 255.163C236.815 253.267 236.127 251.535 235.276 249.995L318.833 158.938Z"   fill="#5479FF" >
</path>
<path d="M235.275 249.991C236.124 251.533 236.817 253.262 237.355 255.161L225.075 248.871C224.538 246.971 223.844 245.242 222.995 243.701L235.275 249.991Z">
</path>
<g mask="url(#mask-FD9210BF-51C5-437C-AD33-D457B7558607)">
<path d="M237.354 255.163L225.074 248.87C224.534 246.97 223.845 245.241 222.996 243.701L235.276 249.992C236.125 251.534 236.816 253.264 237.354 255.163Z"   fill="#857131" >
</path>
</g>
<path d="M235.273 249.993L222.996 243.704L306.558 152.645L318.835 158.933L235.273 249.993Z"   fill="url(#linear_fill_ECDD812A-3BF3-40CA-A6FB-D699CC256A80)" >
</path>
<path d="M249.163 251.026C250.669 252.709 252.035 254.581 253.233 256.636C234.809 247.195 206.858 239.404 191.833 225.166C190.641 223.111 189.275 221.239 187.763 219.556L249.163 251.026Z">
</path>
<g mask="url(#mask-58D6F0C7-489E-4A42-A025-8D2B3AEE4517)">
<path d="M253.233 256.634L191.828 225.169C190.637 223.115 189.275 221.239 187.763 219.555L249.167 251.021C250.673 252.704 252.035 254.58 253.233 256.634Z"   fill="#535353" >
</path>
</g>
<path d="M193.068 211.865L254.469 243.33C247.759 239.891 239.646 239.03 230.827 241.392L169.427 209.926C178.246 207.565 186.359 208.426 193.068 211.865Z" fill-rule="evenodd"  fill="#6086FF" >
</path>
<path d="M122.918 344.277L230.828 344.277L230.828 209.927L122.918 209.927L122.918 344.277">
</path>
<g mask="url(#mask-7FDBFBC7-5222-495F-AD73-7D7FC3050471)">
<path d="M202.816 344.275L141.414 312.81C129.597 306.751 122.216 292.685 122.972 274.199C124.169 245.194 145.094 216.443 169.428 209.927L230.829 241.392C206.495 247.907 185.571 276.658 184.373 305.663C183.607 324.149 190.999 338.216 202.816 344.275Z"   fill="#3AD6D2" >
</path>
</g>
<path d="M202.811 344.275L141.405 312.808C129.597 306.76 122.215 292.692 122.974 274.197C123.053 272.189 123.229 270.188 123.493 268.195L184.899 299.661C184.635 301.655 184.459 303.656 184.371 305.664C183.612 324.159 190.994 338.219 202.811 344.275Z" fill-rule="evenodd"  fill="#3AD6D2" >
</path>
<path d="M184.898 299.659L123.496 268.194C123.822 265.748 124.28 263.311 124.864 260.904L186.266 292.369C185.683 294.776 185.224 297.214 184.898 299.659Z"   fill="#3AD6D2" >
</path>
<path d="M186.264 292.369L124.865 260.902C125.337 258.953 125.892 257.02 126.523 255.112L187.922 286.576C187.291 288.487 186.737 290.421 186.264 292.369Z"   fill="#3AD6D2" >
</path>
<path d="M187.922 286.577L126.52 255.113C127.096 253.361 127.736 251.635 128.439 249.931L189.841 281.396C189.138 283.1 188.498 284.829 187.922 286.577Z"   fill="#3AD6D2" >
</path>
<path d="M189.84 281.395L128.438 249.931C129.112 248.298 129.837 246.691 130.613 245.113L192.014 276.577C191.239 278.155 190.514 279.763 189.84 281.395Z"   fill="#3AD6D2" >
</path>
<path d="M192.016 276.577L130.612 245.114C131.384 243.544 132.202 242.008 133.07 240.5L194.475 271.963C193.606 273.471 192.782 275.011 192.016 276.577Z"   fill="#3AD6D2" >
</path>
<path d="M194.472 271.964L133.073 240.498C133.965 238.949 134.909 237.437 135.899 235.961L197.298 267.428C196.309 268.9 195.365 270.416 194.472 271.964Z"   fill="#3AD6D2" >
</path>
<path d="M197.298 267.426L135.896 235.962C136.945 234.395 138.044 232.874 139.196 231.405L200.597 262.87C199.446 264.339 198.346 265.859 197.298 267.426Z"   fill="#3AD6D2" >
</path>
<path d="M200.596 262.87L139.195 231.405C140.477 229.766 141.812 228.192 143.205 226.691L204.605 258.156C203.212 259.657 201.878 261.231 200.596 262.87Z"   fill="#3AD6D2" >
</path>
<path d="M204.607 258.156L143.203 226.689C144.933 224.819 146.744 223.06 148.622 221.429L210.026 252.893C208.149 254.527 206.338 256.286 204.607 258.156Z"   fill="#3AD6D2" >
</path>
<path d="M122.972 274.199C122.206 292.685 129.598 306.751 141.403 312.81L202.816 344.275C190.999 338.216 183.618 324.149 184.374 305.663C185.571 276.658 206.495 247.907 230.829 241.392L169.428 209.927C145.094 216.443 124.159 245.194 122.972 274.199Z"   fill="url(#linear_fill_2F312BC2-6749-4694-94DA-D963D36D0ED3)" >
</path>
<g mask="url(#mask-2F312BC2-6749-4694-94DA-D963D36D0ED3)">
<path d="M210.023 252.894L148.624 221.429C154.938 215.951 162.024 211.912 169.43 209.927L230.83 241.392C223.423 243.377 216.337 247.416 210.023 252.894Z"   fill="#6086FF" >
</path>
</g>
<path d="M230.829 241.393C243.913 237.89 255.445 241.479 263.136 250.056C264.653 251.743 266.01 253.613 267.208 255.666C271.253 262.608 273.4 271.572 272.974 281.921C272.61 290.659 270.481 299.364 267.004 307.446C265.789 310.272 264.405 313.024 262.879 315.667C254.283 330.595 241.066 342.288 226.518 346.19C201.999 352.756 183.184 334.647 184.373 305.662C185.57 276.666 206.487 247.917 230.829 241.393Z" stroke="url(#linear_border_AB8CC50C-4F14-41D7-B4B6-B38680B6B729)" stroke-width="1.304168207482818"      fill="url(#linear_fill_AB8CC50C-4F14-41D7-B4B6-B38680B6B729)" >
</path>
<path d="M311.722 99.5486L396.682 99.5486L396.682 64.8086L311.722 64.8086L311.722 99.5486">
</path>
<g mask="url(#mask-87F6A5C8-FCD3-463A-BF28-1F94CB7C2538)">
<path d="M335.281 68.0805L396.682 99.5444C389.987 96.1159 381.907 95.2406 373.122 97.5957L311.722 66.1283C320.498 63.7767 328.586 64.6486 335.281 68.0805Z"   fill="#6086FF" >
</path>
</g>
<path d="M265.268 130.395C266.455 101.406 287.389 72.6449 311.723 66.1298L373.124 97.5906C348.79 104.119 327.856 132.867 326.669 161.869C326.194 173.287 328.881 183.067 333.812 190.281C335.139 192.215 336.618 193.975 338.247 195.52C340.33 197.508 342.661 199.173 345.186 200.463L283.785 169.002C281.26 167.699 278.929 166.047 276.846 164.059C275.217 162.5 273.739 160.754 272.411 158.82C267.48 151.593 264.793 141.827 265.268 130.395Z" fill-rule="evenodd"  fill="#3AD6D2" >
</path>
<path d="M338.244 195.519C340.331 197.512 342.659 199.17 345.186 200.463L283.783 168.996C281.256 167.702 278.929 166.044 276.842 164.051C275.218 162.5 273.739 160.758 272.419 158.818C267.477 151.6 264.798 141.826 265.27 130.393C265.35 128.393 265.526 126.393 265.789 124.4L327.192 155.867C326.928 157.86 326.752 159.86 326.664 161.861C326.2 173.286 328.879 183.06 333.814 190.286C335.141 192.218 336.621 193.967 338.244 195.519Z" fill-rule="evenodd"  fill="#3AD6D2" >
</path>
<path d="M327.193 155.864L265.79 124.4C266.117 121.951 266.575 119.517 267.159 117.111L328.561 148.575C327.977 150.985 327.519 153.419 327.193 155.864Z"   fill="#3AD6D2" >
</path>
<path d="M328.558 148.576L267.159 117.109C267.632 115.161 268.187 113.227 268.817 111.32L330.217 142.786C329.586 144.694 329.031 146.627 328.558 148.576Z"   fill="#3AD6D2" >
</path>
<path d="M330.216 142.784L268.814 111.319C269.391 109.571 270.03 107.841 270.733 106.137L332.135 137.602C331.432 139.307 330.793 141.033 330.216 142.784Z"   fill="#3AD6D2" >
</path>
<path d="M332.134 137.602L270.733 106.137C271.407 104.504 272.131 102.897 272.907 101.318L334.309 132.784C333.533 134.362 332.808 135.969 332.134 137.602Z"   fill="#3AD6D2" >
</path>
<path d="M334.312 132.783L272.906 101.318C273.679 99.7485 274.497 98.2115 275.365 96.7034L336.77 128.168C335.902 129.677 335.078 131.217 334.312 132.783Z"   fill="#3AD6D2" >
</path>
<path d="M336.769 128.168L275.368 96.7049C276.261 95.1531 277.205 93.6409 278.194 92.1648L339.595 123.628C338.606 125.105 337.661 126.62 336.769 128.168Z"   fill="#3AD6D2" >
</path>
<path d="M339.594 123.63L278.192 92.1643C279.24 90.5973 280.34 89.0771 281.492 87.6074L342.894 119.073C341.743 120.543 340.643 122.063 339.594 123.63Z"   fill="#3AD6D2" >
</path>
<path d="M342.892 119.072L281.492 87.6062C282.774 85.9673 284.109 84.3934 285.502 82.892L346.902 114.358C345.509 115.859 344.174 117.433 342.892 119.072Z"   fill="#3AD6D2" >
</path>
<path d="M346.904 114.357L285.5 82.8903C287.231 81.021 289.042 79.2618 290.92 77.6312L352.324 109.098C350.446 110.728 348.635 112.487 346.904 114.357Z"   fill="#3AD6D2" >
</path>
<path d="M311.723 66.1298C287.389 72.6449 266.454 101.406 265.267 130.395C264.793 141.827 267.48 151.593 272.411 158.82C273.738 160.754 275.217 162.5 276.846 164.059C278.929 166.047 281.26 167.699 283.785 169.002L345.186 200.463C342.661 199.173 340.33 197.508 338.247 195.52C336.618 193.961 335.139 192.215 333.812 190.281C328.88 183.067 326.194 173.287 326.668 161.869C327.866 132.867 348.79 104.119 373.124 97.5906L311.723 66.1298Z" fill-rule="evenodd"  fill="url(#linear_fill_57060D4E-BB11-417E-AA0A-02594434FA33)" >
</path>
<g mask="url(#mask-57060D4E-BB11-417E-AA0A-02594434FA33)">
<path d="M352.326 109.095L290.922 77.6314C297.235 72.1532 304.321 68.1144 311.719 66.1294L373.123 97.5934C365.725 99.5784 358.639 103.617 352.326 109.095Z"   fill="#6086FF" >
</path>
</g>
<path d="M373.124 97.5948C397.464 91.0726 416.456 109.339 415.268 138.125C414.079 167.116 393.322 195.827 368.812 202.392C356.633 205.648 345.855 202.768 338.244 195.515C336.621 193.968 335.14 192.216 333.818 190.282C328.877 183.061 326.198 173.283 326.668 161.861C327.857 132.871 348.783 104.117 373.124 97.5948Z" stroke="url(#linear_border_743E8A84-75C6-4761-9B65-B9CDD0DE2B02)" stroke-width="1.304168207482818"      fill="url(#linear_fill_743E8A84-75C6-4761-9B65-B9CDD0DE2B02)" >
</path>
<path d="M374.018 306.057L435.421 337.522C428.712 334.087 420.599 333.222 411.79 335.584L350.387 304.119C359.196 301.757 367.309 302.622 374.018 306.057Z"   fill="#6086FF" >
</path>
<path d="M383.851 438.456L322.45 406.994C310.591 400.909 303.177 386.79 303.933 368.386C305.12 339.598 326.044 310.649 350.388 304.12L411.789 335.582C387.445 342.11 366.521 371.06 365.334 399.848C364.578 418.252 371.992 432.384 383.851 438.456Z" fill-rule="evenodd"  fill="#3AD6D2" >
</path>
<path d="M383.849 438.456L322.448 406.992C310.588 400.912 303.175 386.791 303.935 368.392C304.015 366.408 304.191 364.432 304.447 362.456L365.856 393.92C365.592 395.896 365.416 397.872 365.336 399.856C364.576 418.255 371.989 432.383 383.849 438.456Z" fill-rule="evenodd"  fill="#3AD6D2" >
</path>
<path d="M365.852 393.92L304.451 362.455C304.777 360.027 305.229 357.604 305.812 355.208L367.214 386.673C366.63 389.07 366.179 391.489 365.852 393.92Z"   fill="#3AD6D2" >
</path>
<path d="M367.215 386.672L305.812 355.208C306.285 353.26 306.833 351.33 307.464 349.423L368.867 380.887C368.237 382.795 367.688 384.728 367.215 386.672Z"   fill="#3AD6D2" >
</path>
<path d="M368.865 380.888L307.465 349.424C308.042 347.672 308.688 345.938 309.391 344.23L370.79 375.694C370.087 377.402 369.448 379.136 368.865 380.888Z"   fill="#3AD6D2" >
</path>
<path d="M370.793 375.695L309.388 344.23C310.062 342.593 310.793 340.977 311.569 339.391L372.974 370.856C372.192 372.442 371.461 374.058 370.793 375.695Z"   fill="#3AD6D2" >
</path>
<path d="M372.971 370.855L311.571 339.392C312.344 337.814 313.175 336.265 314.05 334.749L375.449 366.212C374.574 367.732 373.75 369.277 372.971 370.855Z"   fill="#3AD6D2" >
</path>
<path d="M375.452 366.214L314.047 334.748C314.946 333.191 315.897 331.667 316.887 330.183L378.292 361.649C377.296 363.133 376.345 364.654 375.452 366.214Z"   fill="#3AD6D2" >
</path>
<path d="M378.289 361.648L316.889 330.181C317.944 328.606 319.051 327.078 320.209 325.6L381.61 357.066C380.451 358.544 379.344 360.072 378.289 361.648Z"   fill="#3AD6D2" >
</path>
<path d="M381.611 357.064L320.207 325.599C321.496 323.951 322.838 322.365 324.238 320.855L385.642 352.321C384.242 353.831 382.9 355.417 381.611 357.064Z"   fill="#3AD6D2" >
</path>
<path d="M385.64 352.32L324.24 320.854C325.97 318.985 327.781 317.225 329.666 315.591L391.066 347.057C389.188 348.688 387.377 350.451 385.64 352.32Z"   fill="#3AD6D2" >
</path>
<path d="M303.932 368.386C303.177 386.79 310.59 400.909 322.45 406.994L383.851 438.456C371.992 432.384 364.578 418.252 365.334 399.848C366.521 371.06 387.445 342.11 411.789 335.582L350.388 304.12C326.043 310.649 305.119 339.598 303.932 368.386Z" fill-rule="evenodd"  fill="url(#linear_fill_E691AEC2-7943-4818-B6E6-B3C9AA12F869)" >
</path>
<g mask="url(#mask-E691AEC2-7943-4818-B6E6-B3C9AA12F869)">
<path d="M391.069 347.056L329.664 315.589C335.955 310.127 343.018 306.096 350.384 304.121L411.79 335.584C404.415 337.563 397.36 341.595 391.069 347.056Z"   fill="#6086FF" >
</path>
</g>
<path d="M411.785 335.586C436.124 329.064 455.115 347.128 453.926 376.11C452.738 405.114 431.991 433.817 407.474 440.383C382.958 446.949 364.145 428.637 365.333 399.849C366.522 371.07 387.446 342.109 411.785 335.586Z" stroke="url(#linear_border_0BF1A654-95C5-4B07-BF85-3BB9F393581F)" stroke-width="1.304168207482818"      fill="url(#linear_fill_0BF1A654-95C5-4B07-BF85-3BB9F393581F)" >
</path>
<path    stroke="url(#linear_border_3E06A6AB-26A6-44FE-AFF7-8B0106AFCE4C_0)" stroke-width="9.45521950425043" stroke-linejoin="round"   d="M179.586 175.165C98.3235 187.474 42.5485 212.934 42.5485 242.332C42.5485 283.78 153.356 317.378 289.997 317.378C426.639 317.378 537.446 283.78 537.446 242.332C537.446 210.66 472.714 183.564 381.158 172.558">
</path>
<defs>
<linearGradient id="linear_border_EAC06134-6913-4130-8AB2-6B84760E8F4C" x1="291.929931640625" y1="515.3095703125" x2="291.929931640625" y2="590.859619140625" gradientUnits="userSpaceOnUse">
<stop offset="0" stop-color="#9FB4FF" stop-opacity="0.28" />
<stop offset="1" stop-color="#7391FF"  />
</linearGradient>
<linearGradient id="linear_fill_18A17DBE-6350-4D96-8173-F846C07AC249" x1="290.74798583984375" y1="0" x2="290.74798583984375" y2="581.49609375" gradientUnits="userSpaceOnUse">
<stop offset="0" stop-color="#3A65F2"  />
<stop offset="1" stop-color="#3D7FFF"  />
</linearGradient>
<linearGradient id="linear_fill_6B7B5D1D-B1E1-4757-99B4-B85A4E865865" x1="292.00128173828125" y1="570.71240234375" x2="292.00128173828125" y2="367.194091796875" gradientUnits="userSpaceOnUse">
<stop offset="0" stop-color="#EFF5FF"  />
<stop offset="1" stop-color="#A2BFF4"  />
</linearGradient>
<mask id="mask-6B7B5D1D-B1E1-4757-99B4-B85A4E865865" style="mask-type:alpha" maskUnits="userSpaceOnUse">
<path d="M40.1847 437.637L301.016 290.748L543.818 437.637L292.001 590.951L40.1847 437.637Z"   fill="url(#linear_fill_6B7B5D1D-B1E1-4757-99B4-B85A4E865865)" >
</path>
</mask>
<linearGradient id="linear_fill_51B4FFC7-AD2C-4B0A-9921-D35BFA1CA8C0" x1="291.929931640625" y1="535.20703125" x2="301.496826171875" y2="284.198974609375" gradientUnits="userSpaceOnUse">
<stop offset="0" stop-color="#A2BFF4"  />
<stop offset="1" stop-color="#EFF5FF"  />
</linearGradient>
<filter id="filter_51B4FFC7-AD2C-4B0A-9921-D35BFA1CA8C0" x="137.1007111161549" y="338.02423406537355" width="309.6613097012838" height="205.6512389005029" filterUnits="userSpaceOnUse" color-interpolation-filters="sRGB">
<feFlood flood-opacity="0" result="feFloodId_51B4FFC7-AD2C-4B0A-9921-D35BFA1CA8C0"/>
<feBlend mode="normal" in="SourceGraphic" in2="feFloodId_51B4FFC7-AD2C-4B0A-9921-D35BFA1CA8C0" result="shape"/>
<feGaussianBlur result="gaussian_blur_51B4FFC7-AD2C-4B0A-9921-D35BFA1CA8C0" stdDeviation="14.18282925637565"/>
</filter>
<filter id="filter_AC034A48-9779-42F6-8C05-322D1C7E763B" x="70.29099818546558" y="46.652936662028196" width="445.6416364415687" height="445.64163644156883" filterUnits="userSpaceOnUse" color-interpolation-filters="sRGB">
<feFlood flood-opacity="0" result="feFloodId_AC034A48-9779-42F6-8C05-322D1C7E763B"/>
<feBlend mode="normal" in="SourceGraphic" in2="feFloodId_AC034A48-9779-42F6-8C05-322D1C7E763B" result="shape"/>
<feGaussianBlur result="gaussian_blur_AC034A48-9779-42F6-8C05-322D1C7E763B" stdDeviation="25.13153948148595"/>
</filter>
<linearGradient id="linear_fill_9C8FA23D-E204-4AA8-9DFA-ED3289832A2E" x1="283.43548583984375" y1="613.0078125" x2="40.1846923828125" y2="464.15380859375" gradientUnits="userSpaceOnUse">
<stop offset="0" stop-color="#D9E7FC"  />
<stop offset="1" stop-color="#3963F1"  />
</linearGradient>
<linearGradient id="linear_fill_FCFEEAC1-9BFF-4C48-9359-BD271991DB4B" x1="292.00128173828125" y1="631.16796875" x2="513.7044677734375" y2="492.829833984375" gradientUnits="userSpaceOnUse">
<stop offset="0" stop-color="#D9E7FC"  />
<stop offset="1" stop-color="#3963F1"  />
</linearGradient>
<linearGradient id="linear_fill_49F9D76F-FC49-43D4-B334-13FFE09A0404" x1="408.2423095703125" y1="281.432861328125" x2="432.3131103515625" y2="296.83984375" gradientUnits="userSpaceOnUse">
<stop offset="0" stop-color="#6086FF"  />
<stop offset="0.2874852093622035" stop-color="#89A4FB"  />
<stop offset="1" stop-color="#2553EA"  />
</linearGradient>
<mask id="mask-45EEE848-4F3C-4CED-9FA8-77950E31FB76" style="mask-type:alpha" maskUnits="userSpaceOnUse">
<path fill="white" d="M406.286 278.288C405.712 279.472 405.08 280.637 404.416 281.758L399.166 279.068C399.831 277.947 400.453 276.782 401.026 275.598L406.286 278.288Z">
</path>
</mask>
<mask id="mask-85D446BA-53EE-493A-B68D-2D2FAD497DC0" style="mask-type:alpha" maskUnits="userSpaceOnUse">
<path fill="white" d="M406.286 278.288C405.712 279.472 405.08 280.637 404.416 281.758L399.166 279.068C399.831 277.947 400.453 276.782 401.026 275.598L406.286 278.288Z">
</path>
</mask>
<mask id="mask-AD8DD372-A8C4-410A-B280-DC22DFC7D987" style="mask-type:alpha" maskUnits="userSpaceOnUse">
<path fill="white" d="M403.121 277.163C402.6 278.372 402.014 279.541 401.361 280.673C393.484 276.637 382.978 271.26 375.101 267.223C375.754 266.091 376.34 264.912 376.861 263.703L403.121 277.163Z">
</path>
</mask>
<mask id="mask-EA672E65-A89A-43D9-874B-71784D786493" style="mask-type:alpha" maskUnits="userSpaceOnUse">
<path fill="white" d="M403.121 277.163C402.6 278.372 402.014 279.541 401.361 280.673C393.484 276.637 382.978 271.26 375.101 267.223C375.754 266.091 376.34 264.912 376.861 263.703L403.121 277.163Z">
</path>
</mask>
<mask id="mask-5233E746-9591-4B5D-BFD7-50AF2EFB1F77" style="mask-type:alpha" maskUnits="userSpaceOnUse">
<path fill="white" d="M395.529 252.176C395.892 252.836 396.189 253.574 396.419 254.386L391.169 251.696C390.94 250.884 390.642 250.145 390.279 249.486L395.529 252.176Z">
</path>
</mask>
<linearGradient id="linear_fill_7B55C650-6A10-4565-9911-379190943771" x1="419.053955078125" y1="222.112548828125" x2="406.8211669921875" y2="245.5498046875" gradientUnits="userSpaceOnUse">
<stop offset="0" stop-color="#6086FF"  />
<stop offset="0.2874852093622035" stop-color="#89A4FB"  />
<stop offset="1" stop-color="#2553EA"  />
</linearGradient>
<mask id="mask-50F04CE5-3A28-452E-BAFE-F5458FCF7189" style="mask-type:alpha" maskUnits="userSpaceOnUse">
<path fill="white" d="M401.471 252.62C402.115 253.34 402.699 254.141 403.211 255.02C395.332 250.983 383.377 247.649 376.951 241.56C376.442 240.681 375.858 239.88 375.211 239.16L401.471 252.62Z">
</path>
</mask>
<mask id="mask-8A8974B2-F66F-409B-8B21-92870F2A4837" style="mask-type:alpha" maskUnits="userSpaceOnUse">
<path fill="white" d="M347.479 292.502L393.629 292.502L393.629 235.042L347.479 235.042L347.479 292.502">
</path>
</mask>
<linearGradient id="linear_fill_0EC3DDBA-D68D-43FC-98EB-CBC316F5DD0F" x1="379.8782958984375" y1="251.00732421875" x2="366.104736328125" y2="283.35205078125" gradientUnits="userSpaceOnUse">
<stop offset="0" stop-color="#6086FF"  />
<stop offset="0.2874852093622035" stop-color="#89A4FB"  />
<stop offset="1" stop-color="#2553EA"  />
</linearGradient>
<mask id="mask-0EC3DDBA-D68D-43FC-98EB-CBC316F5DD0F" style="mask-type:alpha" maskUnits="userSpaceOnUse">
<path d="M347.503 262.529C347.175 270.435 350.336 276.451 355.385 279.042L381.649 292.498C376.596 289.907 373.439 283.891 373.762 275.985C374.274 263.581 383.223 251.285 393.63 248.498L367.37 235.042C356.963 237.829 348.01 250.124 347.503 262.529Z"   fill="url(#linear_fill_0EC3DDBA-D68D-43FC-98EB-CBC316F5DD0F)" >
</path>
</mask>
<linearGradient id="linear_fill_A5DD834E-943D-4262-BC7C-C6BC90580445" x1="397.8731689453125" y1="270.91064453125" x2="386.5220947265625" y2="307.654296875" gradientUnits="userSpaceOnUse">
<stop offset="0" stop-color="#8FA9FF"  />
<stop offset="0.5451054068069117" stop-color="#537AFF"  />
<stop offset="1" stop-color="#436CF9"  />
</linearGradient>
<linearGradient id="linear_border_A5DD834E-943D-4262-BC7C-C6BC90580445" x1="373.73876953125" y1="263.62255859375" x2="386.4464111328125" y2="275.77392578125" gradientUnits="userSpaceOnUse">
<stop offset="0" stop-color="#FFFFFF" stop-opacity="0.63" />
<stop offset="1" stop-color="#FFFFFF" stop-opacity="0" />
</linearGradient>
<mask id="mask-D244AAF5-D2E6-4A9A-94EA-B0FB6833F6E0" style="mask-type:alpha" maskUnits="userSpaceOnUse">
<path fill="white" d="M428.225 187.839L464.555 187.839L464.555 172.979L428.225 172.979L428.225 187.839">
</path>
</mask>
<mask id="mask-62DF57BA-E934-449F-B989-8342912C4D57" style="mask-type:alpha" maskUnits="userSpaceOnUse">
<path fill="white" d="M416.275 217.545C415.195 216.987 414.195 216.275 413.305 215.425C412.608 214.758 411.982 214.012 411.415 213.185C409.306 210.094 408.152 205.914 408.355 201.025C408.862 188.627 417.818 176.331 428.225 173.545L454.485 186.995C444.078 189.787 435.127 202.081 434.615 214.485C434.412 219.368 435.566 223.56 437.675 226.645C438.242 227.472 438.868 228.218 439.565 228.885C440.448 229.728 441.439 230.432 442.509 230.981L416.275 217.545Z">
</path>
</mask>
<linearGradient id="linear_fill_67650151-E241-4896-8ADE-82F5BB0FAF07" x1="440.733154296875" y1="189.508056640625" x2="426.959716796875" y2="221.849365234375" gradientUnits="userSpaceOnUse">
<stop offset="0" stop-color="#6086FF"  />
<stop offset="0.2874852093622035" stop-color="#89A4FB"  />
<stop offset="1" stop-color="#2553EA"  />
</linearGradient>
<mask id="mask-67650151-E241-4896-8ADE-82F5BB0FAF07" style="mask-type:alpha" maskUnits="userSpaceOnUse">
<path d="M439.569 228.881C438.872 228.214 438.24 227.467 437.672 226.64C435.563 223.555 434.414 219.373 434.617 214.489C435.129 202.086 444.078 189.792 454.484 186.999L428.225 173.545C417.818 176.331 408.865 188.631 408.358 201.029C408.155 205.918 409.304 210.094 411.413 213.185C411.98 214.013 412.613 214.759 413.31 215.426C414.2 216.276 415.197 216.983 416.277 217.54L442.536 230.995C441.456 230.443 440.459 229.731 439.569 228.881Z" fill-rule="evenodd"  fill="url(#linear_fill_67650151-E241-4896-8ADE-82F5BB0FAF07)" >
</path>
</mask>
<linearGradient id="linear_fill_6F89D76D-9861-4855-910E-05FE228B667B" x1="458.72802734375" y1="209.412841796875" x2="447.377197265625" y2="246.149169921875" gradientUnits="userSpaceOnUse">
<stop offset="0" stop-color="#8FA9FF"  />
<stop offset="0.5451054068069117" stop-color="#537AFF"  />
<stop offset="1" stop-color="#436CF9"  />
</linearGradient>
<linearGradient id="linear_border_6F89D76D-9861-4855-910E-05FE228B667B" x1="434.5941162109375" y1="202.126220703125" x2="447.3016357421875" y2="214.275146484375" gradientUnits="userSpaceOnUse">
<stop offset="0" stop-color="#FFFFFF" stop-opacity="0.63" />
<stop offset="1" stop-color="#FFFFFF" stop-opacity="0" />
</linearGradient>
<linearGradient id="linear_fill_BE5E8912-7831-48AD-B77E-03755EADF2EC" x1="457.26904296875" y1="291.2890625" x2="443.4954833984375" y2="323.630859375" gradientUnits="userSpaceOnUse">
<stop offset="0" stop-color="#6086FF"  />
<stop offset="0.2874852093622035" stop-color="#89A4FB"  />
<stop offset="1" stop-color="#2553EA"  />
</linearGradient>
<linearGradient id="linear_fill_79DCE53B-C4C7-4D92-88E8-DEC22BAD8650" x1="475.2620849609375" y1="311.19189453125" x2="463.912109375" y2="347.93212890625" gradientUnits="userSpaceOnUse">
<stop offset="0" stop-color="#8FA9FF"  />
<stop offset="0.5451054068069117" stop-color="#537AFF"  />
<stop offset="1" stop-color="#436CF9"  />
</linearGradient>
<linearGradient id="linear_border_79DCE53B-C4C7-4D92-88E8-DEC22BAD8650" x1="451.1300048828125" y1="303.904541015625" x2="463.83642578125" y2="316.0546875" gradientUnits="userSpaceOnUse">
<stop offset="0" stop-color="#FFFFFF" stop-opacity="0.63" />
<stop offset="1" stop-color="#FFFFFF" stop-opacity="0" />
</linearGradient>
<linearGradient id="linear_fill_DFC90EE2-54C4-455E-A02C-7F8F0A8CF35D" x1="177.98126220703125" y1="172.697509765625" x2="153.910400390625" y2="188.1044921875" gradientUnits="userSpaceOnUse">
<stop offset="0" stop-color="#6086FF"  />
<stop offset="0.2874852093622035" stop-color="#89A4FB"  />
<stop offset="1" stop-color="#2553EA"  />
</linearGradient>
<mask id="mask-45F50D1E-7708-4D5F-A91D-2FFE2F94F8FC" style="mask-type:alpha" maskUnits="userSpaceOnUse">
<path fill="white" d="M179.942 169.553L185.192 166.863C185.764 168.047 186.396 169.212 187.062 170.333L181.802 173.023C181.137 171.902 180.515 170.737 179.942 169.553Z">
</path>
</mask>
<mask id="mask-072E9668-4E72-45ED-987B-BAFC7708849B" style="mask-type:alpha" maskUnits="userSpaceOnUse">
<path fill="white" d="M179.942 169.553L185.192 166.863C185.764 168.047 186.396 169.212 187.062 170.333L181.802 173.023C181.137 171.902 180.515 170.737 179.942 169.553Z">
</path>
</mask>
<mask id="mask-7D6E3161-E7D5-4669-9A71-DD3334372279" style="mask-type:alpha" maskUnits="userSpaceOnUse">
<path fill="white" d="M183.1 168.428L209.36 154.968C209.882 156.177 210.467 157.356 211.12 158.488C203.243 162.525 192.737 167.902 184.86 171.938C184.207 170.806 183.622 169.637 183.1 168.428Z">
</path>
</mask>
<mask id="mask-34A99B03-B1D8-42D4-A361-B9A9E289067B" style="mask-type:alpha" maskUnits="userSpaceOnUse">
<path fill="white" d="M183.1 168.428L209.36 154.968C209.882 156.177 210.467 157.356 211.12 158.488C203.243 162.525 192.737 167.902 184.86 171.938C184.207 170.806 183.622 169.637 183.1 168.428Z">
</path>
</mask>
<linearGradient id="linear_fill_463B81D4-012F-49E2-8C52-A688E6C9CE9D" x1="167.1695556640625" y1="113.37744140625" x2="179.40234375" y2="136.814697265625" gradientUnits="userSpaceOnUse">
<stop offset="0" stop-color="#6086FF"  />
<stop offset="0.2874852093622035" stop-color="#89A4FB"  />
<stop offset="1" stop-color="#2553EA"  />
</linearGradient>
<mask id="mask-41F0AF3D-1F93-4599-9B14-B67428E165B2" style="mask-type:alpha" maskUnits="userSpaceOnUse">
<path fill="white" d="M184.753 143.885L211.013 130.425C210.366 131.145 209.782 131.946 209.273 132.825C202.847 138.914 190.892 142.247 183.013 146.285C183.525 145.406 184.109 144.605 184.753 143.885Z">
</path>
</mask>
<mask id="mask-5D3353A3-64E2-449E-87C3-A91AA7695FCB" style="mask-type:alpha" maskUnits="userSpaceOnUse">
<path fill="white" d="M192.594 126.307L192.594 183.767L238.744 183.767L238.744 126.307L192.594 126.307">
</path>
</mask>
<linearGradient id="linear_fill_00D709C0-83D3-4230-8873-D6D438BC578C" x1="206.34527587890625" y1="142.272216796875" x2="220.11883544921875" y2="174.616943359375" gradientUnits="userSpaceOnUse">
<stop offset="0" stop-color="#6086FF"  />
<stop offset="0.2874852093622035" stop-color="#89A4FB"  />
<stop offset="1" stop-color="#2553EA"  />
</linearGradient>
<mask id="mask-00D709C0-83D3-4230-8873-D6D438BC578C" style="mask-type:alpha" maskUnits="userSpaceOnUse">
<path d="M238.721 153.794C239.049 161.7 235.887 167.716 230.839 170.307L204.575 183.763C209.628 181.172 212.785 175.156 212.462 167.25C211.949 154.846 203.001 142.55 192.594 139.763L218.853 126.307C229.26 129.094 238.213 141.389 238.721 153.794Z"   fill="url(#linear_fill_00D709C0-83D3-4230-8873-D6D438BC578C)" >
</path>
</mask>
<linearGradient id="linear_fill_83774122-A28A-4D2F-BFD5-C46A1AA0BA5D" x1="188.35040283203125" y1="162.17529296875" x2="199.701416015625" y2="198.9189453125" gradientUnits="userSpaceOnUse">
<stop offset="0" stop-color="#8FA9FF"  />
<stop offset="0.5451054068069117" stop-color="#537AFF"  />
<stop offset="1" stop-color="#436CF9"  />
</linearGradient>
<linearGradient id="linear_border_83774122-A28A-4D2F-BFD5-C46A1AA0BA5D" x1="174.5472412109375" y1="154.88720703125" x2="187.25494384765625" y2="167.03857421875" gradientUnits="userSpaceOnUse">
<stop offset="0" stop-color="#FFFFFF" stop-opacity="0.63" />
<stop offset="1" stop-color="#FFFFFF" stop-opacity="0" />
</linearGradient>
<mask id="mask-8D7D99B0-55E8-4A6F-ADF0-730B30757E7B" style="mask-type:alpha" maskUnits="userSpaceOnUse">
<path fill="white" d="M121.664 64.2444L121.664 79.1044L157.994 79.1044L157.994 64.2444L121.664 64.2444">
</path>
</mask>
<mask id="mask-D1663C32-41EB-4906-A591-7C0C729A2E1C" style="mask-type:alpha" maskUnits="userSpaceOnUse">
<path fill="white" d="M172.909 106.689C172.018 107.54 171.029 108.252 169.949 108.809L143.715 122.246C144.785 121.696 145.776 120.993 146.659 120.149C147.356 119.483 147.981 118.737 148.549 117.909C150.658 114.824 151.812 110.633 151.609 105.749C151.097 93.3458 142.146 81.0514 131.739 78.2593L157.999 64.8093C168.406 67.5957 177.361 79.8916 177.869 92.2893C178.072 97.1783 176.918 101.359 174.809 104.449C174.241 105.277 173.606 106.023 172.909 106.689Z">
</path>
</mask>
<linearGradient id="linear_fill_BD931C98-053B-4F09-93CA-EADE1D577360" x1="145.49029541015625" y1="80.772705078125" x2="159.2637939453125" y2="113.114013671875" gradientUnits="userSpaceOnUse">
<stop offset="0" stop-color="#6086FF"  />
<stop offset="0.2874852093622035" stop-color="#89A4FB"  />
<stop offset="1" stop-color="#2553EA"  />
</linearGradient>
<mask id="mask-BD931C98-053B-4F09-93CA-EADE1D577360" style="mask-type:alpha" maskUnits="userSpaceOnUse">
<path d="M146.655 120.145C147.352 119.479 147.984 118.732 148.551 117.905C150.661 114.82 151.81 110.637 151.607 105.754C151.094 93.3505 142.146 81.0562 131.739 78.2641L157.998 64.8093C168.405 67.5957 177.358 79.8957 177.866 92.2935C178.069 97.1825 176.92 101.359 174.811 104.45C174.243 105.277 173.611 106.024 172.914 106.69C172.023 107.541 171.026 108.247 169.947 108.805L143.687 122.259C144.767 121.708 145.764 120.996 146.655 120.145Z" fill-rule="evenodd"  fill="url(#linear_fill_BD931C98-053B-4F09-93CA-EADE1D577360)" >
</path>
</mask>
<linearGradient id="linear_fill_8161868F-6DB2-41A7-986D-2447368A9203" x1="127.4954833984375" y1="100.677490234375" x2="138.8463134765625" y2="137.4140625" gradientUnits="userSpaceOnUse">
<stop offset="0" stop-color="#8FA9FF"  />
<stop offset="0.5451054068069117" stop-color="#537AFF"  />
<stop offset="1" stop-color="#436CF9"  />
</linearGradient>
<linearGradient id="linear_border_8161868F-6DB2-41A7-986D-2447368A9203" x1="113.69256591796875" y1="93.390869140625" x2="126.4000244140625" y2="105.539794921875" gradientUnits="userSpaceOnUse">
<stop offset="0" stop-color="#FFFFFF" stop-opacity="0.63" />
<stop offset="1" stop-color="#FFFFFF" stop-opacity="0" />
</linearGradient>
<linearGradient id="linear_fill_B786868E-BDDB-456A-A2CC-AA874515BB1F" x1="128.954345703125" y1="182.553955078125" x2="142.72796630859375" y2="214.895751953125" gradientUnits="userSpaceOnUse">
<stop offset="0" stop-color="#6086FF"  />
<stop offset="0.2874852093622035" stop-color="#89A4FB"  />
<stop offset="1" stop-color="#2553EA"  />
</linearGradient>
<mask id="mask-B786868E-BDDB-456A-A2CC-AA874515BB1F" style="mask-type:alpha" maskUnits="userSpaceOnUse">
<path d="M161.33 194.075C161.653 201.946 158.483 207.984 153.411 210.586L127.151 224.041C132.223 221.445 135.394 215.401 135.071 207.53C134.563 195.218 125.614 182.837 115.203 180.045L141.462 166.59C151.874 169.382 160.822 181.763 161.33 194.075Z" fill-rule="evenodd"  fill="url(#linear_fill_B786868E-BDDB-456A-A2CC-AA874515BB1F)" >
</path>
</mask>
<linearGradient id="linear_fill_47BEE9AC-A2A2-4C48-BCE6-D4E0206C9527" x1="110.96142578125" y1="202.456787109375" x2="122.3114013671875" y2="239.197021484375" gradientUnits="userSpaceOnUse">
<stop offset="0" stop-color="#8FA9FF"  />
<stop offset="0.5451054068069117" stop-color="#537AFF"  />
<stop offset="1" stop-color="#436CF9"  />
</linearGradient>
<linearGradient id="linear_border_47BEE9AC-A2A2-4C48-BCE6-D4E0206C9527" x1="97.15960693359375" y1="195.16943359375" x2="109.8660888671875" y2="207.319580078125" gradientUnits="userSpaceOnUse">
<stop offset="0" stop-color="#FFFFFF" stop-opacity="0.63" />
<stop offset="1" stop-color="#FFFFFF" stop-opacity="0" />
</linearGradient>
<linearGradient id="linear_fill_48103E1F-D549-4463-9109-AD067631BAD6" x1="264.9974365234375" y1="318.400146484375" x2="321.2813720703125" y2="354.42578125" gradientUnits="userSpaceOnUse">
<stop offset="0" stop-color="#6086FF"  />
<stop offset="0.2874852093622035" stop-color="#89A4FB"  />
<stop offset="1" stop-color="#2553EA"  />
</linearGradient>
<mask id="mask-10D9EC18-6FC5-4545-9A09-7F49B57D0CC8" style="mask-type:alpha" maskUnits="userSpaceOnUse">
<path fill="white" d="M260.414 311.048C259.073 313.817 257.608 316.535 256.054 319.158L243.774 312.858C245.33 310.235 246.795 307.527 248.134 304.758L260.414 311.048Z">
</path>
</mask>
<mask id="mask-96EEA46E-9908-4D92-8984-06B194F03DBF" style="mask-type:alpha" maskUnits="userSpaceOnUse">
<path fill="white" d="M253.024 308.404C251.806 311.23 250.431 313.987 248.904 316.634C230.486 307.196 205.923 294.603 187.504 285.164C189.031 282.517 190.406 279.77 191.624 276.944L253.024 308.404Z">
</path>
</mask>
<mask id="mask-F302A59F-C994-43C2-9F1F-F7D2FAC5277F" style="mask-type:alpha" maskUnits="userSpaceOnUse">
<path fill="white" d="M253.024 308.404C251.806 311.23 250.431 313.987 248.904 316.634C230.486 307.196 205.923 294.603 187.504 285.164C189.031 282.517 190.406 279.77 191.624 276.944L253.024 308.404Z">
</path>
</mask>
<mask id="mask-FD9210BF-51C5-437C-AD33-D457B7558607" style="mask-type:alpha" maskUnits="userSpaceOnUse">
<path fill="white" d="M235.275 249.991C236.124 251.533 236.817 253.262 237.355 255.161L225.075 248.871C224.538 246.971 223.844 245.242 222.995 243.701L235.275 249.991Z">
</path>
</mask>
<linearGradient id="linear_fill_ECDD812A-3BF3-40CA-A6FB-D699CC256A80" x1="290.27813720703125" y1="179.6943359375" x2="261.6746826171875" y2="234.49658203125" gradientUnits="userSpaceOnUse">
<stop offset="0" stop-color="#6086FF"  />
<stop offset="0.2874852093622035" stop-color="#89A4FB"  />
<stop offset="1" stop-color="#2553EA"  />
</linearGradient>
<mask id="mask-58D6F0C7-489E-4A42-A025-8D2B3AEE4517" style="mask-type:alpha" maskUnits="userSpaceOnUse">
<path fill="white" d="M249.163 251.026C250.669 252.709 252.035 254.581 253.233 256.636C234.809 247.195 206.858 239.404 191.833 225.166C190.641 223.111 189.275 221.239 187.763 219.556L249.163 251.026Z">
</path>
</mask>
<mask id="mask-7FDBFBC7-5222-495F-AD73-7D7FC3050471" style="mask-type:alpha" maskUnits="userSpaceOnUse">
<path fill="white" d="M122.918 344.277L230.828 344.277L230.828 209.927L122.918 209.927L122.918 344.277">
</path>
</mask>
<linearGradient id="linear_fill_2F312BC2-6749-4694-94DA-D963D36D0ED3" x1="199.041259765625" y1="251.93359375" x2="176.87384033203125" y2="303.869140625" gradientUnits="userSpaceOnUse">
<stop offset="0" stop-color="#6086FF"  />
<stop offset="0.4925811792791966" stop-color="#89A4FB"  />
<stop offset="1" stop-color="#2553EA"  />
</linearGradient>
<mask id="mask-2F312BC2-6749-4694-94DA-D963D36D0ED3" style="mask-type:alpha" maskUnits="userSpaceOnUse">
<path d="M122.972 274.199C122.206 292.685 129.598 306.751 141.403 312.81L202.816 344.275C190.999 338.216 183.618 324.149 184.374 305.663C185.571 276.658 206.495 247.907 230.829 241.392L169.428 209.927C145.094 216.443 124.159 245.194 122.972 274.199Z"   fill="url(#linear_fill_2F312BC2-6749-4694-94DA-D963D36D0ED3)" >
</path>
</mask>
<linearGradient id="linear_fill_AB8CC50C-4F14-41D7-B4B6-B38680B6B729" x1="240.75177001953125" y1="293.796875" x2="214.21014404296875" y2="379.71337890625" gradientUnits="userSpaceOnUse">
<stop offset="0" stop-color="#A2B8FF"  />
<stop offset="0.5451054068069117" stop-color="#537AFF"  />
<stop offset="1" stop-color="#436CF9"  />
</linearGradient>
<linearGradient id="linear_border_AB8CC50C-4F14-41D7-B4B6-B38680B6B729" x1="184.31939697265625" y1="276.75537109375" x2="214.03326416015625" y2="305.16845703125" gradientUnits="userSpaceOnUse">
<stop offset="0" stop-color="#FFFFFF" stop-opacity="0.63" />
<stop offset="1" stop-color="#FFFFFF" stop-opacity="0" />
</linearGradient>
<mask id="mask-87F6A5C8-FCD3-463A-BF28-1F94CB7C2538" style="mask-type:alpha" maskUnits="userSpaceOnUse">
<path fill="white" d="M311.722 99.5486L396.682 99.5486L396.682 64.8086L311.722 64.8086L311.722 99.5486">
</path>
</mask>
<linearGradient id="linear_fill_57060D4E-BB11-417E-AA0A-02594434FA33" x1="341.3358154296875" y1="108.131591796875" x2="319.1685791015625" y2="160.061767578125" gradientUnits="userSpaceOnUse">
<stop offset="0" stop-color="#6086FF"  />
<stop offset="0.4925811792791966" stop-color="#89A4FB"  />
<stop offset="1" stop-color="#2553EA"  />
</linearGradient>
<mask id="mask-57060D4E-BB11-417E-AA0A-02594434FA33" style="mask-type:alpha" maskUnits="userSpaceOnUse">
<path d="M311.723 66.1298C287.389 72.6449 266.454 101.406 265.267 130.395C264.793 141.827 267.48 151.593 272.411 158.82C273.738 160.754 275.217 162.5 276.846 164.059C278.929 166.047 281.26 167.699 283.785 169.002L345.186 200.463C342.661 199.173 340.33 197.508 338.247 195.52C336.618 193.961 335.139 192.215 333.812 190.281C328.88 183.067 326.194 173.287 326.668 161.869C327.866 132.867 348.79 104.119 373.124 97.5906L311.723 66.1298Z" fill-rule="evenodd"  fill="url(#linear_fill_57060D4E-BB11-417E-AA0A-02594434FA33)" >
</path>
</mask>
<linearGradient id="linear_fill_743E8A84-75C6-4761-9B65-B9CDD0DE2B02" x1="383.0462646484375" y1="149.998779296875" x2="356.505126953125" y2="235.898193359375" gradientUnits="userSpaceOnUse">
<stop offset="0" stop-color="#A2B8FF"  />
<stop offset="0.5451054068069117" stop-color="#537AFF"  />
<stop offset="1" stop-color="#436CF9"  />
</linearGradient>
<linearGradient id="linear_border_743E8A84-75C6-4761-9B65-B9CDD0DE2B02" x1="326.6148681640625" y1="132.960693359375" x2="356.3282470703125" y2="161.367919921875" gradientUnits="userSpaceOnUse">
<stop offset="0" stop-color="#FFFFFF" stop-opacity="0.63" />
<stop offset="1" stop-color="#FFFFFF" stop-opacity="0" />
</linearGradient>
<linearGradient id="linear_fill_E691AEC2-7943-4818-B6E6-B3C9AA12F869" x1="380.001220703125" y1="346.122802734375" x2="357.833740234375" y2="398.0537109375" gradientUnits="userSpaceOnUse">
<stop offset="0" stop-color="#6086FF"  />
<stop offset="0.4925811792791966" stop-color="#89A4FB"  />
<stop offset="1" stop-color="#2553EA"  />
</linearGradient>
<mask id="mask-E691AEC2-7943-4818-B6E6-B3C9AA12F869" style="mask-type:alpha" maskUnits="userSpaceOnUse">
<path d="M303.932 368.386C303.177 386.79 310.59 400.909 322.45 406.994L383.851 438.456C371.992 432.384 364.578 418.252 365.334 399.848C366.521 371.06 387.445 342.11 411.789 335.582L350.388 304.12C326.043 310.649 305.119 339.598 303.932 368.386Z" fill-rule="evenodd"  fill="url(#linear_fill_E691AEC2-7943-4818-B6E6-B3C9AA12F869)" >
</path>
</mask>
<linearGradient id="linear_fill_0BF1A654-95C5-4B07-BF85-3BB9F393581F" x1="421.7071533203125" y1="387.984619140625" x2="395.1680908203125" y2="473.892822265625" gradientUnits="userSpaceOnUse">
<stop offset="0" stop-color="#A2B8FF"  />
<stop offset="0.5451054068069117" stop-color="#537AFF"  />
<stop offset="1" stop-color="#436CF9"  />
</linearGradient>
<linearGradient id="linear_border_0BF1A654-95C5-4B07-BF85-3BB9F393581F" x1="365.2802734375" y1="370.945068359375" x2="394.9913330078125" y2="399.355224609375" gradientUnits="userSpaceOnUse">
<stop offset="0" stop-color="#FFFFFF" stop-opacity="0.63" />
<stop offset="1" stop-color="#FFFFFF" stop-opacity="0" />
</linearGradient>
<linearGradient id="linear_border_3E06A6AB-26A6-44FE-AFF7-8B0106AFCE4C_0" x1="289.9974365234375" y1="172.557861328125" x2="289.9974365234375" y2="317.37841796875" gradientUnits="userSpaceOnUse">
<stop offset="0" stop-color="#9CBCFA" stop-opacity="0" />
<stop offset="1" stop-color="#92ABFF"  />
</linearGradient>
</defs>
</svg>
