<svg xmlns="http://www.w3.org/2000/svg" xmlns:xlink="http://www.w3.org/1999/xlink" width="582" height="676.614990234375" viewBox="0 0 582 676.614990234375" fill="none">
<path d="M23.6381 513.219L301.535 356.935L560.222 513.219L291.93 673.684L23.6381 513.219Z" stroke="url(#linear_border_61ECDB85-A8E0-4685-B0A0-228DF1DE8757)" stroke-width="5.030135669105576"   >
</path>
<g opacity="0.2">
<path d="M542.543 145.374L542.543 436.122L290.748 581.496L38.9528 436.122L38.9528 145.374L290.748 0L542.543 145.374Z"   fill="url(#linear_fill_2452C6DB-5799-4AEE-9095-6E1C2C5C3E48)" >
</path>
</g>
<path d="M40.1847 437.637L301.016 290.748L543.818 437.637L292.001 590.951L40.1847 437.637Z"   fill="url(#linear_fill_1ECA9E2D-F473-48EC-848D-404B2DA3F81A)" >
</path>
<g mask="url(#mask-1ECA9E2D-F473-48EC-848D-404B2DA3F81A)">
<g filter="url(#filter_507C5137-9343-46CC-B2DA-C819DE2F1078)">
<path d="M165.466 439.867L296.457 366.39L418.393 439.867L291.93 515.309L165.466 439.867Z"   fill="url(#linear_fill_507C5137-9343-46CC-B2DA-C819DE2F1078)" >
</path>
</g>
</g>
<g mask="url(#mask-1ECA9E2D-F473-48EC-848D-404B2DA3F81A)">
<g filter="url(#filter_5026B82B-C5A9-4EB3-8A0B-0949C0D507E7)">
<circle cx="293.11183310100785" cy="269.47377157757035" r="172.55775595257035"   fill="#4870F2" fill-opacity="0.35">
</circle>
</g>
</g>
<path d="M40.1847 437.629L291.999 588.454L293.112 631.168L40.1847 481.581L40.1847 437.629Z"   fill="url(#linear_fill_792C3EE6-6E91-4EE2-B20C-48AA867B7BC9)" >
</path>
<path d="M292.001 588.454L543.818 437.629L543.818 483.459L293.109 631.168L292.001 588.454Z"   fill="url(#linear_fill_083E1780-F355-45C7-B2BE-946C5E5921F1)" >
</path>
<g opacity="0.78">
<g filter="url(#filter_6FD01348-3682-4ED7-AA5E-DAC1720FDC3B)">
<ellipse cx="294.56452761939556" cy="409.9843979835913" rx="105.65266238502055" ry="28.61110696796627"   fill="url(#linear_fill_6FD01348-3682-4ED7-AA5E-DAC1720FDC3B)" >
</ellipse>
</g>
</g>
<g opacity="0.78">
<ellipse cx="318.471117564725" cy="409.9843979835913" rx="81.746019908475" ry="28.61110696796627"   fill="url(#linear_fill_6DEFD768-1E69-4324-9848-2C045D72E0C2)" >
</ellipse>
</g>
<path     fill="url(#linear_fill_9B5C3696-B193-428F-B52D-4EAB650A4580_0)"  d="M259.614 398.962C259.614 402.86 260.866 406.819 263.804 409.382C285.296 428.127 340.858 432.076 364.584 409.362C367.364 406.7 368.504 402.89 368.504 399.042L368.504 283.442L259.614 283.442L259.614 398.962">
</path>
<rect  x="302.77587890625" y="354.4639892578125" width="12.26190298627126" height="44.96031094966128" rx="6.13095149313563"    fill="url(#linear_fill_C3E23561-0EC8-42A9-8819-B38EA62B11F7_0)" >
</rect>
<path   fill="url(#linear_border_C3E23561-0EC8-42A9-8819-B38EA62B11F7_0)"  d="M308.907 353.176C313.004 353.176 316.326 356.497 316.326 360.595L316.326 393.293C316.326 397.391 313.004 400.713 308.907 400.713C304.809 400.713 301.487 397.391 301.487 393.293L301.487 360.595C301.487 356.497 304.809 353.176 308.907 353.176ZM308.907 355.752C306.232 355.752 304.064 357.921 304.064 360.595L304.064 393.293C304.064 395.968 306.232 398.136 308.907 398.136C311.581 398.136 313.749 395.968 313.749 393.293L313.749 360.595C313.749 357.921 311.581 355.752 308.907 355.752Z">
</path>
<rect  x="323.21240234375" y="370.813232421875" width="12.26190298627126" height="28.61110696796629" rx="6.13095149313563"    fill="url(#linear_fill_622E0F09-4E03-4907-906F-B3E7011604FD_0)" >
</rect>
<path   fill="url(#linear_border_622E0F09-4E03-4907-906F-B3E7011604FD_0)"  d="M329.343 369.525C333.441 369.525 336.763 372.847 336.763 376.944L336.763 393.293C336.763 397.391 333.441 400.713 329.343 400.713C325.246 400.713 321.924 397.391 321.924 393.293L321.924 376.944C321.924 372.847 325.246 369.525 329.343 369.525ZM329.343 372.102C326.669 372.102 324.501 374.27 324.501 376.944L324.501 393.293C324.501 395.968 326.669 398.136 329.343 398.136C332.018 398.136 334.186 395.968 334.186 393.293L334.186 376.944C334.186 374.27 332.018 372.102 329.343 372.102Z">
</path>
<rect  x="343.64892578125" y="378.98779296875" width="12.26190298627126" height="20.43650497711877" rx="6.13095149313563"    fill="url(#linear_fill_0CBE280E-DD35-4F60-9AB2-243BD5BFB54A_0)" >
</rect>
<path   fill="url(#linear_border_0CBE280E-DD35-4F60-9AB2-243BD5BFB54A_0)"  d="M349.78 377.699C353.878 377.699 357.199 381.021 357.199 385.119L357.199 393.293C357.199 397.391 353.878 400.713 349.78 400.713C345.682 400.713 342.36 397.391 342.36 393.293L342.36 385.119C342.36 381.021 345.682 377.699 349.78 377.699ZM349.78 380.276C347.105 380.276 344.937 382.444 344.937 385.119L344.937 393.293C344.937 395.968 347.105 398.136 349.78 398.136C352.454 398.136 354.622 395.968 354.622 393.293L354.622 385.119C354.622 382.444 352.454 380.276 349.78 380.276Z">
</path>
<path d="M304.425 329.869C359.783 316.364 400.871 266.444 400.871 206.927C400.871 137.04 344.216 80.3844 274.328 80.3844C204.441 80.3844 147.785 137.04 147.785 206.927C147.785 213.052 148.22 219.074 149.061 224.966C148.925 249.22 149.653 370.723 177.682 383.766C207.839 397.799 250.184 392.896 304.425 329.869Z" fill-rule="evenodd"  fill="url(#linear_fill_6106BF07-E92E-4948-B045-48767BE6BBCB)" >
</path>
<g mask="url(#mask-6106BF07-E92E-4948-B045-48767BE6BBCB)" opacity="0.24">
<ellipse cx="208.11402059125916" cy="371.7272157135589" rx="48.55713582563417" ry="41.199994033871405"   fill="url(#linear_fill_99EADB6D-0AFA-4992-BBE3-C0F293C5606E)" >
</ellipse>
</g>
<ellipse cx="340.14799181160816" cy="208.41208700201784" transform="rotate(26.99999933044209 248.91943359375 53.912109375)" rx="91.22855821785815" ry="154.49997762701784" stroke="url(#linear_border_0051E4A1-04F8-44B9-85DC-A1DDE8A24249)" stroke-width="3.53645522169825"      fill="url(#linear_fill_0051E4A1-04F8-44B9-85DC-A1DDE8A24249)" >
</ellipse>
<path d="M177.096 218.777L232.592 235.733C241.65 238.5 248.987 249.847 248.987 261.083C248.987 272.313 241.65 279.176 232.592 276.409L177.096 259.453C168.038 256.686 160.701 245.339 160.701 234.103C160.701 222.873 168.038 216.01 177.096 218.777Z"   fill="#FFFFFF" >
</path>
<path d="M170.066 224.626L225.562 240.575C234.62 243.177 241.957 253.85 241.957 264.418C241.957 274.981 234.62 281.435 225.562 278.834L170.066 262.885C161.008 260.283 153.671 249.609 153.671 239.041C153.671 228.479 161.008 222.024 170.066 224.626Z"   fill="url(#linear_fill_40FB5631-BEB0-4817-B7B4-7F656077C6E7)" >
</path>
<circle cx="347.8996723110316" cy="277.5558002407191" r="47.08570746728162"   fill="#0042DC" >
</circle>
<circle cx="356.7282855922816" cy="277.5558002407191" r="47.08570746728162" stroke="url(#linear_border_ACE69B27-0B04-417C-B844-C2849E815817)" stroke-width="2.576894204512696"      fill="url(#linear_fill_ACE69B27-0B04-417C-B844-C2849E815817)" >
</circle>
<path    stroke="url(#linear_border_DA5314B1-2F2C-40E0-8E8E-1E11C47D6654_0)" stroke-width="9.45521950425043" stroke-linejoin="round"   d="M179.586 175.165C98.3235 187.474 42.5485 212.934 42.5485 242.332C42.5485 283.78 153.356 317.378 289.997 317.378C426.639 317.378 537.446 283.78 537.446 242.332C537.446 210.66 472.714 183.564 381.158 172.558">
</path>
<defs>
<linearGradient id="linear_border_61ECDB85-A8E0-4685-B0A0-228DF1DE8757" x1="291.929931640625" y1="515.3094482421875" x2="291.929931640625" y2="590.8594970703125" gradientUnits="userSpaceOnUse">
<stop offset="0" stop-color="#9FB4FF" stop-opacity="0.28" />
<stop offset="1" stop-color="#7391FF"  />
</linearGradient>
<linearGradient id="linear_fill_2452C6DB-5799-4AEE-9095-6E1C2C5C3E48" x1="290.748046875" y1="0" x2="290.748046875" y2="581.4959716796875" gradientUnits="userSpaceOnUse">
<stop offset="0" stop-color="#3A65F2"  />
<stop offset="1" stop-color="#3D7FFF"  />
</linearGradient>
<linearGradient id="linear_fill_1ECA9E2D-F473-48EC-848D-404B2DA3F81A" x1="292.001220703125" y1="570.71240234375" x2="292.001220703125" y2="367.194091796875" gradientUnits="userSpaceOnUse">
<stop offset="0" stop-color="#EFF5FF"  />
<stop offset="1" stop-color="#A2BFF4"  />
</linearGradient>
<mask id="mask-1ECA9E2D-F473-48EC-848D-404B2DA3F81A" style="mask-type:alpha" maskUnits="userSpaceOnUse">
<path d="M40.1847 437.637L301.016 290.748L543.818 437.637L292.001 590.951L40.1847 437.637Z"   fill="url(#linear_fill_1ECA9E2D-F473-48EC-848D-404B2DA3F81A)" >
</path>
</mask>
<linearGradient id="linear_fill_507C5137-9343-46CC-B2DA-C819DE2F1078" x1="291.929931640625" y1="535.2069091796875" x2="301.4967041015625" y2="284.1988525390625" gradientUnits="userSpaceOnUse">
<stop offset="0" stop-color="#A2BFF4"  />
<stop offset="1" stop-color="#EFF5FF"  />
</linearGradient>
<filter id="filter_507C5137-9343-46CC-B2DA-C819DE2F1078" x="137.10065008099878" y="338.0241119950613" width="309.66124866612745" height="205.65136097081495" filterUnits="userSpaceOnUse" color-interpolation-filters="sRGB">
<feGaussianBlur result="gaussian_blur_507C5137-9343-46CC-B2DA-C819DE2F1078" stdDeviation="14.18282925637565"/>
</filter>
<filter id="filter_5026B82B-C5A9-4EB3-8A0B-0949C0D507E7" x="70.2909981854657" y="46.652936662028196" width="445.6416364415686" height="445.6416364415686" filterUnits="userSpaceOnUse" color-interpolation-filters="sRGB">
<feGaussianBlur result="gaussian_blur_5026B82B-C5A9-4EB3-8A0B-0949C0D507E7" stdDeviation="25.13153948148595"/>
</filter>
<linearGradient id="linear_fill_792C3EE6-6E91-4EE2-B20C-48AA867B7BC9" x1="283.4354248046875" y1="613.0078125" x2="40.1846923828125" y2="464.15380859375" gradientUnits="userSpaceOnUse">
<stop offset="0" stop-color="#D9E7FC"  />
<stop offset="1" stop-color="#3963F1"  />
</linearGradient>
<linearGradient id="linear_fill_083E1780-F355-45C7-B2BE-946C5E5921F1" x1="292.001220703125" y1="631.16796875" x2="513.7044677734375" y2="492.8299560546875" gradientUnits="userSpaceOnUse">
<stop offset="0" stop-color="#D9E7FC"  />
<stop offset="1" stop-color="#3963F1"  />
</linearGradient>
<linearGradient id="linear_fill_6FD01348-3682-4ED7-AA5E-DAC1720FDC3B" x1="219.76677606078044" y1="383.7594126318986" x2="361.9851645681191" y2="433.3552577720238" gradientUnits="userSpaceOnUse">
<stop offset="0" stop-color="#7C9BFE"  />
<stop offset="0.5850929054054054" stop-color="#344FFF"  />
<stop offset="1" stop-color="#1D34D7"  />
</linearGradient>
<filter id="filter_6FD01348-3682-4ED7-AA5E-DAC1720FDC3B" x="163.142923189248" y="355.604348970498" width="262.8431819418165" height="108.76005205900401" filterUnits="userSpaceOnUse" color-interpolation-filters="sRGB">
<feGaussianBlur result="gaussian_blur_6FD01348-3682-4ED7-AA5E-DAC1720FDC3B" stdDeviation="12.88447102256348"/>
</filter>
<linearGradient id="linear_fill_6DEFD768-1E69-4324-9848-2C045D72E0C2" x1="260.59828833362155" y1="383.7594126318986" x2="370.6360948197972" y2="433.3552577720238" gradientUnits="userSpaceOnUse">
<stop offset="0" stop-color="#7C9BFE"  />
<stop offset="0.5850929054054054" stop-color="#344FFF"  />
<stop offset="1" stop-color="#1D34D7"  />
</linearGradient>
<linearGradient id="linear_fill_9B5C3696-B193-428F-B52D-4EAB650A4580_0" x1="314.056884765625" y1="314.3165283203125" x2="314.056884765625" y2="602.896484375" gradientUnits="userSpaceOnUse">
<stop offset="0" stop-color="#2451F2"  />
<stop offset="1" stop-color="#7596FF"  />
</linearGradient>
<linearGradient id="linear_fill_C3E23561-0EC8-42A9-8819-B38EA62B11F7_0" x1="308.9068303993856" y1="354.4639892578125" x2="308.9068303993856" y2="399.4243002074738" gradientUnits="userSpaceOnUse">
<stop offset="0" stop-color="#7193FF"  />
<stop offset="0.5772157917004638" stop-color="#DBE7FC"  />
<stop offset="1" stop-color="#7999FF"  />
</linearGradient>
<linearGradient id="linear_border_C3E23561-0EC8-42A9-8819-B38EA62B11F7_0" x1="308.9068303993856" y1="367.3678508584992" x2="308.9068303993856" y2="399.4243002074738" gradientUnits="userSpaceOnUse">
<stop offset="0" stop-color="#FFFFFF" stop-opacity="0.34" />
<stop offset="1" stop-color="#FFFFFF" stop-opacity="0" />
</linearGradient>
<linearGradient id="linear_fill_622E0F09-4E03-4907-906F-B3E7011604FD_0" x1="329.3433538368856" y1="370.813232421875" x2="329.3433538368856" y2="399.4243393898413" gradientUnits="userSpaceOnUse">
<stop offset="0" stop-color="#7193FF"  />
<stop offset="0.5772157917004638" stop-color="#DBE7FC"  />
<stop offset="1" stop-color="#7999FF"  />
</linearGradient>
<linearGradient id="linear_border_622E0F09-4E03-4907-906F-B3E7011604FD_0" x1="329.3433538368856" y1="379.0247807132211" x2="329.3433538368856" y2="399.4243393898413" gradientUnits="userSpaceOnUse">
<stop offset="0" stop-color="#FFFFFF" stop-opacity="0.34" />
<stop offset="1" stop-color="#FFFFFF" stop-opacity="0" />
</linearGradient>
<linearGradient id="linear_fill_0CBE280E-DD35-4F60-9AB2-243BD5BFB54A_0" x1="349.7798772743856" y1="378.98779296875" x2="349.7798772743856" y2="399.4242979458688" gradientUnits="userSpaceOnUse">
<stop offset="0" stop-color="#7193FF"  />
<stop offset="0.5772157917004638" stop-color="#DBE7FC"  />
<stop offset="1" stop-color="#7999FF"  />
</linearGradient>
<linearGradient id="linear_border_0CBE280E-DD35-4F60-9AB2-243BD5BFB54A_0" x1="349.7798772743856" y1="384.8531846054258" x2="349.7798772743856" y2="399.4242979458688" gradientUnits="userSpaceOnUse">
<stop offset="0" stop-color="#FFFFFF" stop-opacity="0.34" />
<stop offset="1" stop-color="#FFFFFF" stop-opacity="0" />
</linearGradient>
<radialGradient id="linear_fill_6106BF07-E92E-4948-B045-48767BE6BBCB" cx="0" cy="0" r="1" gradientTransform="translate(199.3809814453125 106.16796875) rotate(-211.19539159124946) scale(304.8692792547422, 304.8692792547422)" gradientUnits="userSpaceOnUse">
<stop offset="0" stop-color="#C0CFFF"  />
<stop offset="0.1651690917804539" stop-color="#9CB4FF"  />
<stop offset="0.280765426757756" stop-color="#6F91FF"  />
<stop offset="0.5457608710747243" stop-color="#2451F2"  />
<stop offset="0.7239759290540541" stop-color="#3762F0"  />
<stop offset="1" stop-color="#2451F2"  />
</radialGradient>
<mask id="mask-6106BF07-E92E-4948-B045-48767BE6BBCB" style="mask-type:alpha" maskUnits="userSpaceOnUse">
<path d="M304.425 329.869C359.783 316.364 400.871 266.444 400.871 206.927C400.871 137.04 344.216 80.3844 274.328 80.3844C204.441 80.3844 147.785 137.04 147.785 206.927C147.785 213.052 148.22 219.074 149.061 224.966C148.925 249.22 149.653 370.723 177.682 383.766C207.839 397.799 250.184 392.896 304.425 329.869Z" fill-rule="evenodd"  fill="url(#linear_fill_6106BF07-E92E-4948-B045-48767BE6BBCB)" >
</path>
</mask>
<linearGradient id="linear_fill_99EADB6D-0AFA-4992-BBE3-C0F293C5606E" x1="159.80725750717485" y1="371.52121593984646" x2="257.8926723280839" y2="371.52121593984646" gradientUnits="userSpaceOnUse">
<stop offset="0" stop-color="#3D7FFF"  />
<stop offset="1" stop-color="#53FDF3"  />
</linearGradient>
<linearGradient id="linear_fill_0051E4A1-04F8-44B9-85DC-A1DDE8A24249" x1="340.14799181160816" y1="53.912109375" x2="340.14799181160816" y2="360.67742601682056" gradientUnits="userSpaceOnUse">
<stop offset="0" stop-color="#2E94FF" stop-opacity="0.31" />
<stop offset="1" stop-color="#DAA4FF" stop-opacity="0" />
</linearGradient>
<linearGradient id="linear_border_0051E4A1-04F8-44B9-85DC-A1DDE8A24249" x1="340.14799181160816" y1="53.912109375" x2="340.14799181160816" y2="356.24077125388254" gradientUnits="userSpaceOnUse">
<stop offset="0" stop-color="#EBECFF" stop-opacity="0.35" />
<stop offset="1" stop-color="#D3D4FF" stop-opacity="0" />
</linearGradient>
<linearGradient id="linear_fill_40FB5631-BEB0-4817-B7B4-7F656077C6E7" x1="197.81396484375" y1="224.0501708984375" x2="182.89501953125" y2="268.3165283203125" gradientUnits="userSpaceOnUse">
<stop offset="0" stop-color="#BACDFD"  />
<stop offset="1" stop-color="#1C45FF"  />
</linearGradient>
<linearGradient id="linear_fill_ACE69B27-0B04-417C-B844-C2849E815817" x1="356.7282855922816" y1="230.4700927734375" x2="356.7282855922816" y2="324.64150770800074" gradientUnits="userSpaceOnUse">
<stop offset="0" stop-color="#7193FF"  />
<stop offset="0.5772157917004638" stop-color="#DBE7FC"  />
<stop offset="1" stop-color="#7999FF"  />
</linearGradient>
<linearGradient id="linear_border_ACE69B27-0B04-417C-B844-C2849E815817" x1="356.7282855922816" y1="257.4978174352395" x2="356.7282855922816" y2="324.64150770800074" gradientUnits="userSpaceOnUse">
<stop offset="0" stop-color="#FFFFFF" stop-opacity="0.34" />
<stop offset="1" stop-color="#FFFFFF" stop-opacity="0" />
</linearGradient>
<linearGradient id="linear_border_DA5314B1-2F2C-40E0-8E8E-1E11C47D6654_0" x1="289.9974365234375" y1="172.5577392578125" x2="289.9974365234375" y2="317.378173828125" gradientUnits="userSpaceOnUse">
<stop offset="0" stop-color="#9CBCFA" stop-opacity="0" />
<stop offset="1" stop-color="#92ABFF"  />
</linearGradient>
</defs>
</svg>
