<svg xmlns="http://www.w3.org/2000/svg" xmlns:xlink="http://www.w3.org/1999/xlink" width="582" height="676.614990234375" viewBox="0 0 582 676.614990234375" fill="none">
<path d="M23.6381 513.219L301.535 356.935L560.222 513.219L291.93 673.684L23.6381 513.219Z" stroke="url(#linear_border_BCDA8BFF-597D-4367-91FF-F116F9E4D823)" stroke-width="5.030135669105576"   >
</path>
<g opacity="0.2">
<path d="M542.543 145.374L542.543 436.122L290.748 581.496L38.9528 436.122L38.9528 145.374L290.748 0L542.543 145.374Z"   fill="url(#linear_fill_9A41C5C6-570F-4FDF-B8E8-33DCF3F71E2E)" >
</path>
</g>
<path d="M40.1847 437.637L301.016 290.748L543.818 437.637L292.001 590.951L40.1847 437.637Z"   fill="url(#linear_fill_E7AFEF59-5540-4626-A9AA-58E18576C2B0)" >
</path>
<g mask="url(#mask-E7AFEF59-5540-4626-A9AA-58E18576C2B0)">
<g filter="url(#filter_4C1AE64C-C1D1-4910-A2B2-4B1D5FAEE839)">
<path d="M165.466 439.867L296.457 366.39L418.393 439.867L291.93 515.309L165.466 439.867Z"   fill="url(#linear_fill_4C1AE64C-C1D1-4910-A2B2-4B1D5FAEE839)" >
</path>
</g>
</g>
<g mask="url(#mask-E7AFEF59-5540-4626-A9AA-58E18576C2B0)">
<g filter="url(#filter_8A386AD3-D457-4A94-9DDA-F47C6BA684F7)">
<circle cx="293.11183310100785" cy="269.4737410599922" r="172.55775595257035"   fill="#4870F2" fill-opacity="0.35">
</circle>
</g>
</g>
<path d="M40.1847 437.629L291.999 588.454L293.112 631.168L40.1847 481.581L40.1847 437.629Z"   fill="url(#linear_fill_CFBE5B26-EED1-4782-9291-0E3BE051E37C)" >
</path>
<path d="M292.001 588.454L543.818 437.629L543.818 483.459L293.109 631.168L292.001 588.454Z"   fill="url(#linear_fill_9D21276C-C505-46A8-971B-65D83D04E449)" >
</path>
<g opacity="0.55">
<g opacity="0.6">
<path d="M112.693 398.903L317.444 480.153L457.527 420.211L262.95 339.538L112.693 398.903Z" stroke="rgba(85, 122, 243, 1)" stroke-width="9.25639672259749"   >
</path>
</g>
<circle cx="311.0893762108396" cy="479.38289427724584" transform="rotate(1.9999999065344156 295.66204833984375 463.95556640625)" r="15.427327870995825"   fill="#4C74FD" >
</circle>
<circle cx="113.02522826162082" cy="404.54475951162084" transform="rotate(1.9999999065344156 97.597900390625 389.117431640625)" r="15.427327870995825"   fill="#4C74FD" >
</circle>
<circle cx="257.34688353505834" cy="338.5755822655271" transform="rotate(1.9999999065344156 241.9195556640625 323.14825439453125)" r="15.427327870995825"   fill="#4C74FD" >
</circle>
<circle cx="458.38692259755834" cy="416.60506224599584" transform="rotate(1.9999999065344156 442.9595947265625 401.177734375)" r="15.427327870995825"   fill="#4C74FD" >
</circle>
</g>
<path d="M114.416 349.565L319.167 430.816L459.249 370.873L264.673 290.2L114.416 349.565Z" stroke="rgba(255, 255, 255, 1)" stroke-width="9.25639672259749"   >
</path>
<circle cx="312.8122766014646" cy="430.04549193349584" transform="rotate(1.9999999065344156 297.38494873046875 414.6181640625)" r="15.427327870995825"   fill="#FFFFFF" >
</circle>
<circle cx="114.74812865224582" cy="355.20735716787084" transform="rotate(1.9999999065344156 99.32080078125 339.780029296875)" r="15.427327870995825"   fill="#FFFFFF" >
</circle>
<circle cx="259.06978392568334" cy="289.2381799217771" transform="rotate(1.9999999065344156 243.6424560546875 273.81085205078125)" r="15.427327870995825"   fill="#FFFFFF" >
</circle>
<circle cx="460.10982298818334" cy="367.26765990224584" transform="rotate(1.9999999065344156 444.6824951171875 351.84033203125)" r="15.427327870995825"   fill="#FFFFFF" >
</circle>
<path     fill="url(#linear_fill_31912F37-1B50-4BD6-BB30-6E6DF8E364DD_0)"  d="M277.359 293.582L240.374 429.764C239.608 432.583 242.817 434.792 245.171 433.064L462.656 273.417L342.502 227.866L277.359 293.582">
</path>
<path   fill="url(#linear_border_31912F37-1B50-4BD6-BB30-6E6DF8E364DD_0)"  d="M343 226.554L463.15 272.108L463.483 274.55L246.002 434.195L246.002 434.195C242.578 436.708 237.902 433.5 239.015 429.401L239.015 429.401L276.003 293.212L276.361 292.592L341.506 226.878L343 226.554ZM342.005 229.177L342.502 227.866L343.498 228.853L278.353 294.567L277.357 293.58L278.71 293.947L241.722 430.136L240.369 429.768L241.722 430.136C241.305 431.673 243.058 432.876 244.342 431.934L245.172 433.064L244.342 431.934L461.823 272.289L462.653 273.42L462.156 274.731L342.005 229.177ZM343 226.554L342.502 227.866L341.506 226.878L342.148 226.231L343 226.554ZM463.483 274.55L462.653 273.42L463.15 272.108L465.563 273.023L463.483 274.55ZM276.361 292.592L277.357 293.58L276.003 293.212L276.1 292.855L276.361 292.592Z">
</path>
<path    stroke="rgba(255, 255, 255, 1)" stroke-width="12.34186229679666"    d="M121.959 354.573L312.264 430.575">
</path>
<path     fill="url(#linear_fill_7D26CEC7-8A8B-4FD4-B95E-DD3DD4A020B0_0)"  d="M271.758 266.763L371.612 71.5285C373.103 68.6151 369.631 65.6904 367.015 67.6557L162.108 221.568L271.758 266.763">
</path>
<path   fill="url(#linear_border_7D26CEC7-8A8B-4FD4-B95E-DD3DD4A020B0_0)"  d="M162.643 220.271L272.291 265.464L271.756 266.761L270.508 266.122L370.368 70.8937L370.368 70.8937C371.181 69.3046 369.286 67.7097 367.859 68.7816L367.859 68.7816L162.951 222.689L162.108 221.568L162.643 220.271ZM161.574 222.864L161.266 220.446L366.174 66.5388L367.017 67.6602L366.174 66.5388C369.98 63.6802 375.033 67.9334 372.865 72.1711L371.617 71.5324L372.865 72.1711L273.005 267.399L271.222 268.057L161.574 222.864ZM161.266 220.446L162.108 221.568L161.574 222.864L159.297 221.926L161.266 220.446ZM271.222 268.057L271.756 266.761L273.005 267.399L272.416 268.55L271.222 268.057Z">
</path>
<path    stroke="url(#linear_border_B512BF64-C452-41B2-B77F-C7C089556EE6_0)" stroke-width="9.45521950425043" stroke-linejoin="round"   d="M179.586 175.165C98.3235 187.474 42.5485 212.934 42.5485 242.332C42.5485 283.78 153.356 317.378 289.997 317.378C426.639 317.378 537.446 283.78 537.446 242.332C537.446 210.66 472.714 183.564 381.158 172.558">
</path>
<defs>
<linearGradient id="linear_border_BCDA8BFF-597D-4367-91FF-F116F9E4D823" x1="291.929931640625" y1="515.3095092773438" x2="291.929931640625" y2="590.8594970703125" gradientUnits="userSpaceOnUse">
<stop offset="0" stop-color="#9FB4FF" stop-opacity="0.28" />
<stop offset="1" stop-color="#7391FF"  />
</linearGradient>
<linearGradient id="linear_fill_9A41C5C6-570F-4FDF-B8E8-33DCF3F71E2E" x1="290.74798583984375" y1="0" x2="290.74798583984375" y2="581.4959716796875" gradientUnits="userSpaceOnUse">
<stop offset="0" stop-color="#3A65F2"  />
<stop offset="1" stop-color="#3D7FFF"  />
</linearGradient>
<linearGradient id="linear_fill_E7AFEF59-5540-4626-A9AA-58E18576C2B0" x1="292.00128173828125" y1="570.7123413085938" x2="292.00128173828125" y2="367.1939697265625" gradientUnits="userSpaceOnUse">
<stop offset="0" stop-color="#EFF5FF"  />
<stop offset="1" stop-color="#A2BFF4"  />
</linearGradient>
<mask id="mask-E7AFEF59-5540-4626-A9AA-58E18576C2B0" style="mask-type:alpha" maskUnits="userSpaceOnUse">
<path d="M40.1847 437.637L301.016 290.748L543.818 437.637L292.001 590.951L40.1847 437.637Z"   fill="url(#linear_fill_E7AFEF59-5540-4626-A9AA-58E18576C2B0)" >
</path>
</mask>
<linearGradient id="linear_fill_4C1AE64C-C1D1-4910-A2B2-4B1D5FAEE839" x1="291.929931640625" y1="535.2069702148438" x2="301.496826171875" y2="284.1988525390625" gradientUnits="userSpaceOnUse">
<stop offset="0" stop-color="#A2BFF4"  />
<stop offset="1" stop-color="#EFF5FF"  />
</linearGradient>
<filter id="filter_4C1AE64C-C1D1-4910-A2B2-4B1D5FAEE839" x="137.1007111161549" y="338.02411199506116" width="309.6613097012838" height="205.65129993565893" filterUnits="userSpaceOnUse" color-interpolation-filters="sRGB">
<feFlood flood-opacity="0" result="feFloodId_4C1AE64C-C1D1-4910-A2B2-4B1D5FAEE839"/>
<feBlend mode="normal" in="SourceGraphic" in2="feFloodId_4C1AE64C-C1D1-4910-A2B2-4B1D5FAEE839" result="shape"/>
<feGaussianBlur result="gaussian_blur_4C1AE64C-C1D1-4910-A2B2-4B1D5FAEE839" stdDeviation="14.18282925637565"/>
</filter>
<filter id="filter_8A386AD3-D457-4A94-9DDA-F47C6BA684F7" x="70.29099818546558" y="46.65290614444996" width="445.6416364415687" height="445.64166695914696" filterUnits="userSpaceOnUse" color-interpolation-filters="sRGB">
<feFlood flood-opacity="0" result="feFloodId_8A386AD3-D457-4A94-9DDA-F47C6BA684F7"/>
<feBlend mode="normal" in="SourceGraphic" in2="feFloodId_8A386AD3-D457-4A94-9DDA-F47C6BA684F7" result="shape"/>
<feGaussianBlur result="gaussian_blur_8A386AD3-D457-4A94-9DDA-F47C6BA684F7" stdDeviation="25.13153948148595"/>
</filter>
<linearGradient id="linear_fill_CFBE5B26-EED1-4782-9291-0E3BE051E37C" x1="283.43548583984375" y1="613.0076293945312" x2="40.1846923828125" y2="464.15362548828125" gradientUnits="userSpaceOnUse">
<stop offset="0" stop-color="#D9E7FC"  />
<stop offset="1" stop-color="#3963F1"  />
</linearGradient>
<linearGradient id="linear_fill_9D21276C-C505-46A8-971B-65D83D04E449" x1="292.00128173828125" y1="631.1678466796875" x2="513.7044677734375" y2="492.82977294921875" gradientUnits="userSpaceOnUse">
<stop offset="0" stop-color="#D9E7FC"  />
<stop offset="1" stop-color="#3963F1"  />
</linearGradient>
<linearGradient id="linear_fill_31912F37-1B50-4BD6-BB30-6E6DF8E364DD_0" x1="418.37744140625" y1="277.4801025390625" x2="238.71331787109375" y2="419.42950439453125" gradientUnits="userSpaceOnUse">
<stop offset="0" stop-color="#6086FF"  />
<stop offset="0.2488578023500066" stop-color="#AFC2FF"  />
<stop offset="1" stop-color="#2553EA"  />
</linearGradient>
<linearGradient id="linear_border_31912F37-1B50-4BD6-BB30-6E6DF8E364DD_0" x1="370.7685546875" y1="228.8526611328125" x2="239.0733642578125" y2="409.11932373046875" gradientUnits="userSpaceOnUse">
<stop offset="0" stop-color="#FFFFFF" stop-opacity="0.58" />
<stop offset="1" stop-color="#3D7FFF" stop-opacity="0" />
</linearGradient>
<linearGradient id="linear_fill_7D26CEC7-8A8B-4FD4-B95E-DD3DD4A020B0_0" x1="297.7349853515625" y1="162.25457763671875" x2="229.1185302734375" y2="328.3994140625" gradientUnits="userSpaceOnUse">
<stop offset="0" stop-color="#A2B8FF"  />
<stop offset="0.5451054068069117" stop-color="#537AFF"  />
<stop offset="1" stop-color="#436CF9"  />
</linearGradient>
<linearGradient id="linear_border_7D26CEC7-8A8B-4FD4-B95E-DD3DD4A020B0_0" x1="323.4114990234375" y1="90.28201293945312" x2="159.848388671875" y2="286.28790283203125" gradientUnits="userSpaceOnUse">
<stop offset="0" stop-color="#FFFFFF" stop-opacity="0.63" />
<stop offset="1" stop-color="#98AFFE" stop-opacity="0.54" />
</linearGradient>
<linearGradient id="linear_border_B512BF64-C452-41B2-B77F-C7C089556EE6_0" x1="289.9974365234375" y1="172.5577392578125" x2="289.9974365234375" y2="317.378173828125" gradientUnits="userSpaceOnUse">
<stop offset="0" stop-color="#9CBCFA" stop-opacity="0" />
<stop offset="1" stop-color="#92ABFF"  />
</linearGradient>
</defs>
</svg>
